<svg width="24" height="25" viewBox="0 0 24 25" fill="none" xmlns="http://www.w3.org/2000/svg">
<g id="entypo-social:facebook">
<path id="Vector" d="M20.4002 1.7002H3.6002C2.2802 1.7002 1.2002 2.7802 1.2002 4.1002V20.9002C1.2002 22.2214 2.2802 23.3002 3.6002 23.3002H12.0002V14.9002H9.6002V11.9302H12.0002V9.4702C12.0002 6.8734 13.4546 5.0494 16.5194 5.0494L18.683 5.0518V8.1778H17.2466C16.0538 8.1778 15.6002 9.073 15.6002 9.9034V11.9314H18.6818L18.0002 14.9002H15.6002V23.3002H20.4002C21.7202 23.3002 22.8002 22.2214 22.8002 20.9002V4.1002C22.8002 2.7802 21.7202 1.7002 20.4002 1.7002Z" fill="#4267B2"/>
</g>
</svg>
