<svg width="24" height="25" viewBox="0 0 24 25" fill="none" xmlns="http://www.w3.org/2000/svg">
<g id="logos:google-icon">
<path id="Vector" d="M23.9888 12.7247C23.9888 11.7414 23.9071 11.0239 23.7304 10.2798H12.2393V14.7178H18.9843C18.8484 15.8207 18.114 17.4816 16.4821 18.5977L16.4592 18.7463L20.0925 21.4965L20.3442 21.521C22.656 19.4349 23.9888 16.3654 23.9888 12.7247Z" fill="#4285F4"/>
<path id="Vector_2" d="M12.2393 24.4173C15.5438 24.4173 18.3179 23.3543 20.3442 21.5206L16.4821 18.5973C15.4486 19.3016 14.0615 19.7932 12.2393 19.7932C9.00273 19.7932 6.25576 17.7071 5.27654 14.8237L5.13301 14.8356L1.35507 17.6925L1.30566 17.8267C3.31829 21.7332 7.45238 24.4173 12.2393 24.4173Z" fill="#34A853"/>
<path id="Vector_3" d="M5.27634 14.8238C5.01797 14.0797 4.86844 13.2824 4.86844 12.4586C4.86844 11.6347 5.01797 10.8375 5.26275 10.0934L5.25591 9.93494L1.43062 7.03223L1.30547 7.09039C0.475969 8.71149 0 10.5319 0 12.4586C0 14.3853 0.475969 16.2056 1.30547 17.8267L5.27634 14.8238Z" fill="#FBBC05"/>
<path id="Vector_4" d="M12.2393 5.12403C14.5374 5.12403 16.0877 6.09402 16.9717 6.90461L20.4258 3.60928C18.3044 1.6826 15.5438 0.5 12.2393 0.5C7.45238 0.5 3.31829 3.18406 1.30566 7.09056L5.26295 10.0936C6.25576 7.2102 9.00273 5.12403 12.2393 5.12403Z" fill="#EB4335"/>
</g>
</svg>
