<svg width="390" height="245" viewBox="0 0 390 245" fill="none" xmlns="http://www.w3.org/2000/svg">
<path opacity="0.4" d="M10.1985 211.335C10.1985 211.335 1.80356 173.122 44.4587 159.409C87.1137 145.696 79.1676 122.54 90.8518 98.6491C102.543 74.7581 130.8 70.2711 157.815 80.9181C184.831 91.5651 189.038 102.849 209.609 103.038C230.179 103.227 238.595 87.3651 275.534 83.1651C312.473 78.9651 349.511 88.1911 373.139 144.142C386.934 176.811 384.185 210.964 384.185 210.964" fill="#CAF5FF"/>
<path d="M221.917 30.1681H325.679C325.679 30.1681 300.291 6.99811 295.473 19.4441C295.473 19.4441 280.822 4.40111 268.289 2.19611C254.585 -0.21889 257.404 13.9631 257.404 13.9631C257.404 13.9631 243.595 0.292109 228.559 0.789109C213.522 1.28611 221.917 30.1681 221.917 30.1681Z" fill="#CAF5FF"/>
<path opacity="0.3" d="M17.9412 29.0689H92.4789C92.4789 29.0689 74.2442 12.4299 70.7796 21.3689C70.7796 21.3689 60.2526 10.5679 51.2545 8.97893C41.4078 7.24293 43.4347 17.4349 43.4347 17.4349C43.4347 17.4349 33.5108 7.61393 22.7102 7.97093C11.9097 8.32093 17.9412 29.0689 17.9412 29.0689Z" fill="#CAF5FF"/>
<path d="M85.9988 67.6041H160.536C160.536 67.6041 142.302 50.9651 138.837 59.9041C138.837 59.9041 128.31 49.1031 119.312 47.5141C109.465 45.7781 111.492 55.9701 111.492 55.9701C111.492 55.9701 101.568 46.1491 90.7679 46.5061C79.9673 46.8491 85.9988 67.6041 85.9988 67.6041Z" fill="#CAF5FF"/>
<path opacity="0.5" d="M323.632 65.2872H398.169C398.169 65.2872 379.935 48.6482 376.47 57.5872C376.47 57.5872 365.943 46.7862 356.945 45.1972C347.098 43.4612 349.125 53.6532 349.125 53.6532C349.125 53.6532 339.201 43.8322 328.401 44.1892C317.6 44.5392 323.632 65.2872 323.632 65.2872Z" fill="#CAF5FF"/>
<path d="M250.09 192.666C250.09 192.666 250.441 181.991 253.597 179.1C256.753 176.209 259.432 176.825 261.865 174.816C264.299 172.807 264.467 168.25 267.097 166.85C269.727 165.45 271.389 166.066 272.974 164.4C274.559 162.734 277.449 160.375 279.02 162.475C280.591 164.575 277.533 168.544 276.741 171.505C275.955 174.466 271.747 175.775 268.851 179.1C265.954 182.425 267.181 189.95 260.35 192.225" fill="#A6EDC3"/>
<path d="M277.119 163.77C277.119 163.77 264.088 175.334 255.322 192.918" stroke="#98E2B6" stroke-width="0.75" stroke-miterlimit="10" stroke-linecap="round" stroke-linejoin="round"/>
<path d="M269.874 167.676C269.874 167.676 268.563 171.421 268.051 173.493" stroke="#98E2B6" stroke-width="0.75" stroke-miterlimit="10" stroke-linecap="round" stroke-linejoin="round"/>
<path d="M276.2 167.508C276.2 167.508 272.364 169.72 270.52 170.581" stroke="#98E2B6" stroke-width="0.75" stroke-miterlimit="10" stroke-linecap="round" stroke-linejoin="round"/>
<path d="M264.369 174.725C264.369 174.725 263.057 178.47 262.545 180.542" stroke="#98E2B6" stroke-width="0.75" stroke-miterlimit="10" stroke-linecap="round" stroke-linejoin="round"/>
<path d="M260.701 183.524C260.701 183.524 265.197 181.13 267.301 178.351" stroke="#98E2B6" stroke-width="0.75" stroke-miterlimit="10" stroke-linecap="round" stroke-linejoin="round"/>
<path d="M232.718 175.53C232.718 175.53 230.964 164.995 233.489 161.544C236.014 158.093 238.763 158.17 240.748 155.72C242.733 153.27 242.01 148.776 244.318 146.886C246.618 144.996 248.378 145.276 249.599 143.33C250.819 141.391 253.19 138.507 255.153 140.257C257.11 142.007 254.887 146.501 254.69 149.56C254.501 152.612 250.63 154.726 248.449 158.555C246.267 162.384 248.947 169.517 242.691 173.087" fill="#A6EDC3"/>
<path d="M253.54 141.909C253.54 141.909 243.034 155.804 237.894 174.76" stroke="#98E2B6" stroke-width="0.75" stroke-miterlimit="10" stroke-linecap="round" stroke-linejoin="round"/>
<path d="M247.2 147.152C247.2 147.152 246.653 151.086 246.555 153.214" stroke="#98E2B6" stroke-width="0.75" stroke-miterlimit="10" stroke-linecap="round" stroke-linejoin="round"/>
<path d="M253.372 145.752C253.372 145.752 250.048 148.671 248.407 149.882" stroke="#98E2B6" stroke-width="0.75" stroke-miterlimit="10" stroke-linecap="round" stroke-linejoin="round"/>
<path d="M243.189 155.146C243.189 155.146 242.642 159.08 242.543 161.208" stroke="#98E2B6" stroke-width="0.75" stroke-miterlimit="10" stroke-linecap="round" stroke-linejoin="round"/>
<path d="M241.323 164.491C241.323 164.491 245.258 161.264 246.773 158.121" stroke="#98E2B6" stroke-width="0.75" stroke-miterlimit="10" stroke-linecap="round" stroke-linejoin="round"/>
<path d="M104.093 205.259C104.093 205.259 103.742 194.584 100.586 191.693C97.4303 188.802 94.7512 189.418 92.3176 187.409C89.884 185.4 89.7157 180.843 87.0857 179.443C84.4557 178.043 82.7935 178.659 81.2085 176.993C79.6235 175.327 76.734 172.968 75.163 175.068C73.592 177.168 76.6498 181.137 77.4423 184.098C78.2348 187.059 82.4358 188.368 85.3323 191.693C88.2288 195.018 87.0015 202.543 93.8325 204.818" fill="#A6EDC3"/>
<path d="M77.0635 176.37C77.0635 176.37 90.0943 187.934 98.8609 205.518" stroke="#98E2B6" stroke-width="0.75" stroke-miterlimit="10" stroke-linecap="round" stroke-linejoin="round"/>
<path d="M84.3086 180.269C84.3086 180.269 85.6201 184.014 86.1321 186.086" stroke="#98E2B6" stroke-width="0.75" stroke-miterlimit="10" stroke-linecap="round" stroke-linejoin="round"/>
<path d="M77.9824 180.101C77.9824 180.101 81.8187 182.313 83.6632 183.174" stroke="#98E2B6" stroke-width="0.75" stroke-miterlimit="10" stroke-linecap="round" stroke-linejoin="round"/>
<path d="M89.814 187.318C89.814 187.318 91.1255 191.063 91.6374 193.135" stroke="#98E2B6" stroke-width="0.75" stroke-miterlimit="10" stroke-linecap="round" stroke-linejoin="round"/>
<path d="M93.4819 196.117C93.4819 196.117 88.9863 193.723 86.8823 190.937" stroke="#98E2B6" stroke-width="0.75" stroke-miterlimit="10" stroke-linecap="round" stroke-linejoin="round"/>
<path d="M234.45 169.524C234.45 169.524 241.14 152.5 252.025 155.097C263.485 157.834 253.561 185.918 253.561 185.918C253.561 185.918 258.821 179.59 266.711 181.165C274.601 182.74 266.711 198.196 266.711 198.196C266.711 198.196 276.179 191.462 281.614 194.101C287.05 196.74 280.212 204.783 280.212 204.783C280.212 204.783 292.499 195.277 300.642 198.189C308.791 201.108 301.35 212.343 301.35 212.343H239.303" fill="#B5F5D0"/>
<path d="M150.942 161.208C150.942 161.208 144.167 143.001 135.176 145.458C126.178 147.915 131.957 164.764 131.957 164.764L135.176 177.868C135.176 177.868 128.051 171.771 121.114 173.486C114.178 175.208 118.211 189.88 118.211 189.88C118.211 189.88 102.207 179.408 95.3896 181.858C88.5796 184.308 95.3896 198.742 95.3896 198.742C95.3896 198.742 76.138 188.683 72.0983 195.158C68.0586 201.633 80.0304 212.217 80.0304 212.217H153.628" fill="#B5F5D0"/>
<path d="M231.7 213.386C237.409 213.386 242.052 208.752 242.052 203.054V54.0942C242.052 48.3962 237.409 43.7622 231.7 43.7622H158.299C152.59 43.7622 147.947 48.3962 147.947 54.0942V203.054C147.947 208.752 152.59 213.386 158.299 213.386H231.7Z" fill="#F4EDE3"/>
<path d="M145.893 28.439L252.159 134.503" stroke="white" stroke-width="8.2041" stroke-miterlimit="10"/>
<path d="M191.472 73.9321L135.744 129.554" stroke="white" stroke-width="8.2041" stroke-miterlimit="10"/>
<path d="M157.871 107.469L209.209 158.716L242.81 125.179" stroke="white" stroke-width="8.2041" stroke-miterlimit="10"/>
<path d="M163.482 163.973C157.415 157.918 157.415 148.104 163.482 142.049L177.986 127.573L199.951 149.497L185.448 163.973C179.381 170.028 169.549 170.028 163.482 163.973Z" stroke="white" stroke-width="8.2041" stroke-miterlimit="10"/>
<path d="M173.076 92.293L137.876 57.167" stroke="white" stroke-width="8.2041" stroke-miterlimit="10"/>
<path d="M179.788 62.27L213.073 29.041" stroke="white" stroke-width="8.2041" stroke-miterlimit="10"/>
<path d="M206.509 88.947L255.027 40.521" stroke="white" stroke-width="8.2041" stroke-miterlimit="10"/>
<path d="M187.369 162.048L254.346 228.898" stroke="white" stroke-width="8.2041" stroke-miterlimit="10"/>
<path d="M209.209 158.716L225.34 174.809L212.744 187.374" stroke="white" stroke-width="8.2041" stroke-miterlimit="10"/>
<path d="M202.357 177.007L140.709 238.537" stroke="white" stroke-width="8.2041" stroke-miterlimit="10"/>
<path d="M192.054 141.594L225.662 108.057" stroke="white" stroke-width="4.6881" stroke-miterlimit="10"/>
<path d="M204.391 37.707L230.768 64.034" stroke="white" stroke-width="4.6881" stroke-miterlimit="10"/>
<path d="M178.512 201.927L212.113 235.464" stroke="white" stroke-width="4.6881" stroke-miterlimit="10"/>
<path d="M163.482 163.973L133.444 193.954" stroke="white" stroke-width="4.6881" stroke-miterlimit="10"/>
<path d="M226.392 200.996L250.069 177.364" stroke="white" stroke-width="4.6881" stroke-miterlimit="10"/>
<path d="M219.336 101.743L228.502 92.594C230.887 90.214 230.887 86.35 228.502 83.963L220.002 75.479" stroke="white" stroke-width="4.6881" stroke-miterlimit="10"/>
<path d="M225.347 184.511C230.754 184.511 235.137 180.136 235.137 174.739C235.137 169.342 230.754 164.967 225.347 164.967C219.94 164.967 215.556 169.342 215.556 174.739C215.556 180.136 219.94 184.511 225.347 184.511Z" fill="white"/>
<path d="M228.909 174.739C228.909 176.699 227.317 178.295 225.346 178.295C223.383 178.295 221.784 176.706 221.784 174.739C221.784 172.772 223.376 171.183 225.346 171.183C227.31 171.183 228.909 172.779 228.909 174.739Z" fill="#F4EBE2"/>
<path d="M195.708 107.465L181.604 93.3882L167.501 107.465L181.604 121.542L195.708 107.465Z" fill="#B5F5D0"/>
<path d="M217.905 140.625L209.396 132.131L200.886 140.625L209.395 149.118L217.905 140.625Z" fill="#EADED3"/>
<path d="M228.521 130.034L220.011 121.54L211.501 130.034L220.011 138.527L228.521 130.034Z" fill="#EADED3"/>
<path d="M233.141 125.42L224.631 116.927L222.548 119.006L231.058 127.499L233.141 125.42Z" fill="#EADED3"/>
<path d="M167.557 159.885C163.664 156 163.664 149.693 167.557 145.808L177.95 135.434L192.054 149.511L181.66 159.885C177.768 163.777 171.456 163.777 167.557 159.885Z" fill="#B5F5D0"/>
<path d="M215.853 202.28L201.75 188.203L187.646 202.28L201.75 216.357L215.853 202.28Z" fill="#B5F5D0"/>
<path d="M235.144 221.541L221.041 207.464L206.937 221.541L221.041 235.618L235.144 221.541Z" fill="#B5F5D0"/>
<path d="M220.613 62.9578L206.509 48.8809L192.405 62.9578L206.509 77.0348L220.613 62.9578Z" fill="#B5F5D0"/>
<path d="M154.814 92.2908L140.71 78.2139L126.607 92.2908L140.71 106.368L154.814 92.2908Z" fill="#B5F5D0"/>
<path d="M158.299 45.8061H231.701C236.28 45.8061 239.997 49.5231 239.997 54.0871V203.047C239.997 207.618 236.273 211.328 231.701 211.328H158.299C153.719 211.328 150.002 207.611 150.002 203.047V54.0871C150.002 49.5231 153.719 45.8061 158.299 45.8061ZM158.299 41.7041C151.447 41.7041 145.893 47.2481 145.893 54.0871V203.047C145.893 209.886 151.447 215.43 158.299 215.43H231.701C238.553 215.43 244.107 209.886 244.107 203.047V54.0871C244.107 47.2481 238.553 41.7041 231.701 41.7041H158.299Z" fill="#2D287C"/>
<path d="M243.995 83.1579H242.417V67.5269H243.995C244.998 67.5269 245.804 68.3389 245.804 69.3329V81.3519C245.804 82.3529 244.998 83.1579 243.995 83.1579Z" fill="#2D287C"/>
<path d="M243.995 101.477H242.417V85.8457H243.995C244.998 85.8457 245.804 86.6577 245.804 87.6517V99.6707C245.804 100.665 244.998 101.477 243.995 101.477Z" fill="#2D287C"/>
<path d="M194.579 144.135L192.839 142.399" stroke="#FC5475" stroke-width="2" stroke-linecap="round" stroke-linejoin="round"/>
<path d="M190.287 139.851L160.88 110.479" stroke="#FC5475" stroke-width="2" stroke-linecap="round" stroke-linejoin="round" stroke-dasharray="7.22 7.22"/>
<path d="M159.603 109.205L157.871 107.469L159.603 105.74" stroke="#FC5475" stroke-width="2" stroke-linecap="round" stroke-linejoin="round"/>
<path d="M161.925 103.423L188.575 76.8228" stroke="#FC5475" stroke-width="2" stroke-linecap="round" stroke-linejoin="round" stroke-dasharray="6.54 6.54"/>
<path d="M189.732 75.6608L191.472 73.9318L189.732 72.1958" stroke="#FC5475" stroke-width="2" stroke-linecap="round" stroke-linejoin="round"/>
<path d="M187.566 70.0328L178.252 60.7368" stroke="#FC5475" stroke-width="2" stroke-linecap="round" stroke-linejoin="round" stroke-dasharray="6.12 6.12"/>
<path d="M177.172 59.6588L175.433 57.9229" stroke="#FC5475" stroke-width="2" stroke-linecap="round" stroke-linejoin="round"/>
<path d="M184.754 39.0649C187.398 35.2079 188.302 30.0629 186.296 24.7569C184.859 20.9489 181.801 17.9319 177.979 16.5179C167.255 12.5629 157.163 20.3819 157.163 30.5599C157.163 33.7169 158.138 36.6429 159.8 39.0649L159.814 39.0789C160.487 40.0589 161.28 40.9479 162.164 41.7389L171.814 51.4199C172.073 51.6789 172.494 51.6789 172.747 51.4199L182.404 41.7319C183.281 40.9409 184.073 40.0589 184.74 39.0789L184.754 39.0649ZM174.423 27.2419C174.914 27.5149 175.328 27.9209 175.601 28.4039C177.691 32.1139 173.876 35.9429 170.131 33.8779C169.633 33.6049 169.219 33.1849 168.945 32.6879C166.912 28.9499 170.699 25.1839 174.423 27.2419Z" fill="#FC5475"/>
<path d="M174.598 54.7311C174.598 56.0121 173.56 57.0481 172.276 57.0481C170.993 57.0481 169.955 56.0121 169.955 54.7311C169.955 53.4501 170.993 52.4141 172.276 52.4141C173.56 52.4141 174.598 53.4501 174.598 54.7311Z" fill="#FC5475"/>
<path d="M393.211 221.695H-3.21103C-6.50028 221.695 -9.17236 219.028 -9.17236 215.745C-9.17236 212.462 -6.50028 209.795 -3.21103 209.795H393.211C396.5 209.795 399.172 212.462 399.172 215.745C399.172 219.028 396.507 221.695 393.211 221.695Z" fill="#455875"/>
<path d="M-3.21094 215.745H8.0104" stroke="#DADFE5" stroke-width="3" stroke-linecap="round" stroke-linejoin="round"/>
<path d="M16.7983 215.745H377.592" stroke="#DADFE5" stroke-width="3" stroke-linecap="round" stroke-linejoin="round" stroke-dasharray="30.86 30.86"/>
<path d="M381.989 215.745H393.211" stroke="#DADFE5" stroke-width="3" stroke-linecap="round" stroke-linejoin="round"/>
<path d="M273.9 225.636H338.093" stroke="#455875" stroke-width="1.2" stroke-miterlimit="10" stroke-linecap="round"/>
<path d="M126.479 240.546H284.118" stroke="#455875" stroke-width="1.2" stroke-miterlimit="10" stroke-linecap="round"/>
<path d="M80.0303 225.636H144.223" stroke="#455875" stroke-width="1.2" stroke-miterlimit="10" stroke-linecap="round"/>
<path d="M37.9502 225.636H66.5646" stroke="#455875" stroke-width="1.2" stroke-miterlimit="10" stroke-linecap="round"/>
<path d="M110.405 244.158H166.995" stroke="#455875" stroke-width="1.2" stroke-miterlimit="10" stroke-linecap="round"/>
<path d="M299.576 157.624C299.519 158.52 299.435 159.311 299.33 159.913C299.106 161.236 298.552 163.336 297.878 165.688C297.745 166.15 297.605 166.619 297.465 167.095C295.943 172.24 295.206 177.602 295.459 182.957C295.887 192.169 292.499 207.737 292.029 209.214C291.181 210.306 289.547 209.578 288.95 209.368C288.249 199.099 286.945 176.755 286.959 176.258C287.232 165.695 288.53 155.958 288.635 154.404C288.747 152.85 288.908 144.17 289.652 143.876C291.3 143.26 295.564 141.846 297.493 144.646C299.498 147.572 299.821 153.683 299.576 157.624Z" fill="#5539B4"/>
<path d="M299.576 157.624C299.52 158.52 299.436 159.311 299.33 159.913C299.106 161.236 298.552 163.336 297.879 165.688C297.675 162.363 297.29 153.123 297.29 153.123L299.576 157.624Z" fill="#3A2A87"/>
<path d="M317.979 206.89C317.979 207.947 317.908 208.507 315.089 208.5C315.384 208.906 304.934 185.071 303.342 180.605C303.244 180.318 302.837 179.128 302.711 178.722C301.96 176.384 299.505 164.463 298.341 159.808L295.031 144.842C295.031 144.842 290.514 145.451 293.748 145.262C297.857 145.017 302.991 142.973 302.991 142.973C309.843 148.811 310.474 155.524 310.187 158.877C310.075 160.249 310.145 166.059 310.089 167.69C309.871 173.304 310.846 178.932 313.181 184.049C317.284 193.016 317.642 203.894 317.979 206.89Z" fill="#5539B4"/>
<path d="M319.816 209.375C319.515 209.697 318.694 210.117 318.07 210.411C317.726 210.565 316.527 211.258 315.349 211.937C314.879 212.196 314.353 212.336 313.82 212.336H311.884C311.526 212.336 311.393 212.091 311.4 211.937C311.428 211.531 311.765 211.195 312.333 211.09C312.473 211.062 312.62 211.02 312.761 210.964C313.392 210.719 313.911 210.25 314.276 209.676C314.633 209.102 314.886 208.605 314.886 208.605C315.566 207.856 316.562 208.052 316.562 208.052C317.831 207.422 317.979 206.883 317.979 206.883C319.08 207.191 320.125 209.06 319.816 209.375Z" fill="#012851"/>
<path d="M292.029 209.214C292.029 209.214 291.637 209.62 290.227 209.571C290.227 209.571 289.441 208.927 288.481 209.27C288.481 209.27 287.064 210.509 286.054 210.712C285.051 210.915 283.873 211.034 283.599 211.475C283.326 211.916 283.431 212.203 283.431 212.203C283.431 212.203 283.361 212.392 284.588 212.441C285.816 212.49 289.75 212.322 290.437 212.357C291.118 212.392 292.036 212.406 292.464 212.273C292.892 212.133 292.85 209.998 292.029 209.214Z" fill="#012851"/>
<path d="M331.57 210.544C331.802 211.391 331.297 212.266 330.448 212.49C329.6 212.721 328.723 212.217 328.499 211.37C328.267 210.523 328.772 209.648 329.621 209.424C330.469 209.2 331.346 209.697 331.57 210.544Z" fill="#353535"/>
<path d="M323.982 175.74L318.203 177.287L312.592 156.441C312.515 156.147 312.691 155.846 312.978 155.769L317.691 154.502C317.986 154.425 318.287 154.6 318.364 154.887L323.982 175.74Z" stroke="#2D287C" stroke-width="0.8474" stroke-miterlimit="10"/>
<path d="M329.39 174.62L338.03 206.729C338.268 207.611 337.742 208.521 336.859 208.759L326.388 211.566C325.925 211.692 325.441 211.412 325.315 210.943L316.268 177.336C316.141 176.867 316.422 176.384 316.885 176.258L327.356 173.451C328.246 173.213 329.158 173.738 329.39 174.62Z" fill="#FCC000"/>
<path d="M329.39 174.62L338.03 206.729C338.268 207.611 337.742 208.521 336.859 208.759L330.35 210.502C329.88 210.628 329.397 210.348 329.27 209.879L320.223 176.272C320.097 175.803 320.377 175.32 320.847 175.194L327.356 173.451C328.246 173.213 329.158 173.738 329.39 174.62Z" fill="#FECE00"/>
<path d="M332.132 184.805L328.071 185.89C327.839 185.953 327.594 185.813 327.531 185.582L327.489 185.435C327.426 185.204 327.566 184.959 327.797 184.896L331.858 183.811L332.132 184.805Z" fill="#FCC000"/>
<path d="M333.24 188.9L329.179 189.985C328.947 190.048 328.702 189.908 328.639 189.677L328.597 189.53C328.534 189.299 328.674 189.054 328.905 188.991L332.966 187.906L333.24 188.9Z" fill="#FCC000"/>
<path d="M334.341 192.995L330.28 194.08C330.048 194.143 329.803 194.003 329.74 193.772L329.698 193.625C329.635 193.394 329.775 193.149 330.006 193.086L334.067 192.001L334.341 192.995Z" fill="#FCC000"/>
<path d="M335.442 197.09L331.381 198.175C331.15 198.238 330.904 198.098 330.841 197.867L330.799 197.72C330.736 197.489 330.876 197.244 331.107 197.181L335.168 196.096L335.442 197.09Z" fill="#FCC000"/>
<path d="M336.543 201.185L332.483 202.27C332.251 202.333 332.006 202.193 331.942 201.962L331.9 201.815C331.837 201.584 331.978 201.339 332.209 201.276L336.27 200.191L336.543 201.185Z" fill="#FCC000"/>
<path d="M307.852 131.297C307.718 132.025 307.522 133.033 307.312 134.16C306.715 137.296 305.993 141.314 305.993 142.532C305.993 142.952 306.056 143.309 306.133 143.617C306.358 144.527 306.778 145.003 306.463 145.36C306.252 145.605 305.755 145.822 305.081 146.004C304.857 146.067 304.611 146.123 304.352 146.179C301.974 146.669 298.215 149.777 296.209 149.273C290.108 147.74 288.74 146.305 288.852 145.43C289.077 143.645 289.371 140.726 289.371 135.217C289.371 126.992 288.81 116.345 289.435 115.638C290.669 114.616 292.619 113.622 294.582 112.978C295.971 112.747 298.334 112.852 300.824 113.496C303.707 114.245 307.066 114.875 307.557 115.967C308.034 116.996 308.546 127.622 307.852 131.297Z" fill="#00B8F0"/>
<path d="M314.773 150.715C314.773 150.715 314.837 152.395 314.738 152.668C314.64 152.941 313.104 154.432 313.118 155.349C313.118 155.349 313.371 155.86 313.988 156.105C314.605 156.35 316.064 156.224 316.821 155.909C317.579 155.601 317.635 154.054 317.649 153.851C317.663 153.648 317.474 151.87 317.586 150.883" fill="#FFD5B0"/>
<path d="M313.75 153.942C313.75 153.942 313.069 154.824 312.95 155.51C312.852 156.056 312.796 156.203 313.077 156.238C313.364 156.273 313.778 155.93 314.023 155.503" fill="#FFD5B0"/>
<path d="M305.291 123.163C306.547 126.334 311.863 134.23 311.863 134.23L314.556 151.982C314.556 151.982 315.068 152.248 316.001 152.283C316.92 152.311 317.936 151.919 317.936 151.919C317.936 151.919 319.234 134.65 318.077 131.479C316.821 128.021 313.371 119.285 308.006 115.848C305.923 114.511 301.645 113.685 301.645 113.685" fill="#00B8F0"/>
<path d="M307.178 134.867C307.178 134.867 305.404 141.909 309.871 151.142C309.871 151.142 303.279 152.22 296.749 152.745C290.22 153.27 287.807 151.611 287.807 151.611C287.807 151.611 289.013 144.891 289.119 143.4C289.224 141.909 297.352 139.767 297.352 139.767" fill="#00B8F0"/>
<path d="M264.782 125.781L262.426 125.221C262.426 125.221 261.942 124.955 261.135 124.038C260.329 123.121 259.165 123.226 258.926 123.24C258.681 123.254 258.66 123.562 259.095 123.856C259.382 124.052 259.887 123.961 260.055 124.633C260.133 124.934 259.284 124.948 258.842 124.794C258.407 124.647 256.913 123.94 256.535 123.779C256.156 123.618 255.833 123.863 256.829 124.591C257.755 125.27 258.064 125.403 258.414 125.606C258.414 125.613 258.625 126.054 258.765 126.229C258.8 126.278 258.87 126.313 258.94 126.348C258.996 126.46 259.158 126.782 259.27 126.922C259.291 126.943 259.312 126.964 259.347 126.985C259.438 127.174 259.522 127.363 259.607 127.517C259.915 128.133 261.107 127.958 261.633 127.895C262.159 127.825 264.404 128.336 264.404 128.336L264.782 125.781Z" fill="#FFD5B0"/>
<path d="M259.039 125.585C259.039 125.585 258.421 125.564 257.538 125.27C256.654 124.976 255.532 124.346 255.3 124.325C255.069 124.297 255.041 124.591 255.3 124.822C255.56 125.053 256.282 125.473 256.696 125.676C257.187 125.921 259.319 126.467 259.319 126.467" fill="#FFD5B0"/>
<path d="M259.347 126.208C259.347 126.208 258.73 126.257 257.818 126.068C256.907 125.879 255.721 125.382 255.483 125.382C255.252 125.382 255.259 125.676 255.539 125.879C255.82 126.082 256.591 126.411 257.019 126.572C257.531 126.761 259.719 127.3 259.719 127.3" fill="#FFD5B0"/>
<path d="M260.091 127.111C260.091 127.111 259.473 127.16 258.562 126.971C257.65 126.782 256.465 126.285 256.226 126.285C255.995 126.285 256.002 126.579 256.282 126.782C256.563 126.985 257.334 127.314 257.762 127.475C258.274 127.664 260.462 127.965 260.462 127.965" fill="#FFD5B0"/>
<path d="M290.108 125.452C289.792 125.669 289.441 125.893 289.084 126.124C289.084 126.124 285.654 129.295 282.47 131.234C281.067 132.095 279.714 132.704 278.725 132.704C274.777 132.704 263.478 128.336 263.478 128.336L263.983 125.459L277.932 126.684C280.906 123.135 289.427 115.638 289.427 115.638L289.967 123.457L290.108 125.452Z" fill="#00B8F0"/>
<path d="M289.049 126.166C288.663 126.516 285.451 129.421 282.47 131.241C284.721 129.232 287.765 125.788 289.028 124.339C289.028 124.934 289.042 125.543 289.049 126.166Z" fill="#0096D1"/>
<path d="M300.824 113.475C300.817 113.482 298.019 115.589 294.582 112.964C294.582 112.964 295.017 112.131 295.094 111.984C295.29 111.648 295.662 110.934 295.894 109.919C295.915 109.849 295.929 109.772 295.95 109.695C296.013 109.394 296.062 109.058 296.097 108.708C296.16 108.099 296.153 107.42 296.048 106.685L296.377 106.419L301.862 102.114L302.486 101.631C302.486 101.631 302.304 102.674 302.058 104.207C301.918 105.075 301.757 106.097 301.595 107.168C301.266 109.359 300.95 111.753 300.824 113.475Z" fill="#FFD5B0"/>
<path d="M299.968 107.301C299.176 108.449 297.409 110.717 295.094 111.991C295.291 111.655 295.662 110.941 295.894 109.926C295.529 110.038 295.199 110.094 294.884 110.122C294.898 109.87 294.912 109.611 294.905 109.338L295.27 109.121L296.09 108.722L300.424 106.615C300.424 106.615 300.27 106.874 299.968 107.301Z" fill="#FFB985"/>
<path d="M291.314 98.3618C291.314 98.3618 290.36 100.973 292.064 102.457L292.878 98.4808L291.314 98.3618Z" fill="#3F49A5"/>
<path d="M300.866 106.195C300.593 106.58 300.291 106.951 299.969 107.301C299.969 107.301 299.969 107.301 299.962 107.308C299.436 107.882 298.832 108.4 298.18 108.841C297.339 109.408 296.574 109.744 295.887 109.926C295.522 110.038 295.192 110.094 294.877 110.122C293.418 110.248 292.57 109.688 292.57 109.688C291.202 107.665 291.251 104.382 291.567 101.89C291.686 100.882 291.861 100.007 291.987 99.3908C292.107 98.8378 292.198 98.5018 292.198 98.5018C292.205 98.4808 292.205 98.4598 292.212 98.4388C292.808 95.2188 297.114 95.1068 300.074 96.9198C300.249 97.0248 300.41 97.1368 300.572 97.2628C301.392 97.8508 302.08 98.6138 302.486 99.5028C303.181 101.022 302.753 102.751 302.045 104.221C302.002 104.298 301.967 104.375 301.925 104.452C301.603 105.103 301.217 105.698 300.866 106.195Z" fill="#FFD5B0"/>
<path d="M301.041 96.6679C301.041 96.6679 297.528 102.072 291.644 99.2298C289.925 98.3968 289.54 92.5519 291.047 93.7209C294.147 96.1149 296.581 91.5579 299.562 93.0909C300.515 93.5879 301.455 94.7919 301.041 96.6679Z" fill="#3F49A5"/>
<path d="M299.87 97.3539C299.87 97.3539 297.829 107.959 299.99 103.087C299.99 103.087 300.537 101.729 301.525 101.855C302.514 101.981 301.722 105.628 301.582 107.175C301.582 107.175 303.847 105.558 304.681 100.749C305.516 95.9399 302.276 93.9589 300.48 96.0449L299.87 97.3539Z" fill="#3F49A5"/>
<path d="M301.329 102.611C301.329 102.611 300.775 102.688 300.655 103.703C300.536 104.718 301.195 104.921 301.322 104.389C301.455 103.85 300.957 103.528 300.845 103.752C300.852 103.752 300.719 103.164 301.329 102.611Z" fill="#FFB985"/>
<path d="M301.378 82.0801C302.283 80.7641 302.591 79.0071 301.904 77.1941C301.413 75.8921 300.368 74.8631 299.064 74.3801C295.403 73.0291 291.952 75.7031 291.952 79.1751C291.952 80.2531 292.282 81.2541 292.85 82.0801L292.857 82.0871C293.088 82.4231 293.355 82.7241 293.656 82.9971L296.953 86.3011C297.044 86.3921 297.184 86.3921 297.275 86.3011L300.572 82.9901C300.873 82.7171 301.147 82.4161 301.378 82.0801ZM297.85 78.0411C298.019 78.1321 298.159 78.2721 298.25 78.4401C298.965 79.7071 297.661 81.0161 296.385 80.3091C296.216 80.2181 296.076 80.0711 295.978 79.9031C295.283 78.6221 296.581 77.3411 297.85 78.0411Z" fill="#FC5475"/>
<path d="M64.138 198.371L63.9907 203.943C63.9907 204.79 64.3484 205.441 64.8954 206.225C65.0638 206.463 67.5605 210.033 67.7849 210.383C67.7148 210.523 65.6248 211.412 63.1772 207.898C62.2093 206.505 61.4589 205.798 61.4589 205.798L60.1685 198.672" fill="#FFD5B0"/>
<path d="M61.396 205.35C61.396 205.35 61.9641 205.56 62.6795 206.358C63.3948 207.156 64.7975 209.487 65.5128 209.935C66.2282 210.383 67.6309 210.096 67.6309 210.096C67.6309 210.096 70.9342 211.986 70.7448 212.399C70.5905 212.728 70.2398 212.763 70.0575 212.784C68.9283 212.91 65.3375 212.784 65.3375 212.784C65.3375 212.784 64.0541 212.616 63.6824 211.545C63.3107 210.481 61.6415 208.822 61.0103 208.29C60.3721 207.751 60.5264 206.47 61.396 205.35Z" fill="#1B2072"/>
<path d="M60.7295 207.905C60.7295 207.905 60.8908 208.955 60.9469 209.97C61.003 210.985 61.0591 212.784 61.0591 212.784H61.4378C61.4378 212.784 61.3887 209.634 61.6903 208.654C61.9989 207.674 60.7295 207.905 60.7295 207.905Z" fill="#1B2072"/>
<path d="M46.5206 198.587L45.139 202.535C44.9146 203.172 44.8515 203.858 44.9426 204.53C45.0478 205.265 45.1811 206.238 45.2372 206.875C45.3354 208.023 45.2302 209.549 44.4798 209.843C43.7223 210.13 42.2986 207.932 41.8007 206.679C41.3027 205.433 41.1133 203.431 41.2396 202.654C41.3658 201.877 41.9479 201.975 42.1513 201.485C42.3547 200.995 43.2174 197.502 43.2174 197.502" fill="#FFD5B0"/>
<path d="M42.1511 201.479C42.1511 201.479 41.7163 202.039 41.9617 203.103C42.2072 204.167 42.5859 205.056 42.7472 205.924C42.9085 206.792 43.4836 208.885 44.4936 209.193C45.5035 209.501 45.237 206.722 45.237 206.722C45.237 206.722 45.5946 208.766 45.6367 209.585C45.6718 210.299 45.9664 211.307 45.9383 211.727C45.9103 212.147 45.4614 212.392 44.6899 212.021C43.9185 211.643 41.9407 210.432 41.562 209.606C41.1833 208.773 41.6041 207.282 41.1973 206.05C40.7905 204.818 40.3206 203.908 40.5941 202.893C40.8536 201.878 42.1511 201.479 42.1511 201.479Z" fill="#1B2072"/>
<path d="M40.6855 203.151C40.6855 203.151 39.5703 206.42 39.1636 207.036C39.1636 207.036 39.2898 207.197 39.5072 207.232C39.5072 207.232 40.3348 205.349 41.1554 204.348" fill="#1B2072"/>
<path d="M64.9586 176.069V176.02C65.0427 169.405 63.3034 150.169 62.6582 144.107L51.1634 141.454C45.5948 153.249 51.3808 156.175 52.7203 158.786C53.4146 160.144 54.3193 164.61 55.4415 169.041C55.4976 169.251 55.5467 169.475 55.6098 169.685C56.227 172.121 56.9143 174.501 57.6647 176.3V176.307C57.8681 176.804 57.9523 177.336 57.8961 177.868C57.6928 179.779 57.3842 183.524 57.833 187.129C58.7518 194.535 60.5682 201.311 60.5682 201.311C60.5682 201.311 63.0299 201.388 64.1731 200.856C64.1871 200.849 65.0638 181.256 64.9586 176.069Z" fill="#1B2072"/>
<path d="M55.6167 169.685C56.2339 172.121 56.9212 174.501 57.6716 176.3C58.9761 169.377 58.6535 155.321 58.6535 155.321L55.6167 169.685Z" fill="#0F0C59"/>
<path d="M46.4713 143.736C46.4713 143.736 43.6729 148.601 44.0657 152.913C44.3532 155.986 46.2118 166.794 47.1375 173.787C47.4391 176.048 47.1796 178.344 46.3801 180.479C45.6717 182.376 44.9003 184.693 44.5777 186.562C43.7851 191.168 43.0137 197.888 43.0137 197.888C43.0137 197.888 44.7179 199.008 46.6676 198.672C46.6676 198.672 52.6851 185.218 53.9124 180.563C53.9124 180.556 53.9194 180.549 53.9194 180.542C54.5857 177.868 56.6195 167.2 57.7627 159.255C58.9059 151.31 59.2916 143.309 59.2916 143.309L46.4713 143.736Z" fill="#1B2072"/>
<path d="M57.6859 107.616C57.6859 107.616 57.6018 107.861 57.4755 108.26C57.3423 108.694 57.1529 109.31 56.9916 109.982C56.7391 111.004 56.5287 112.159 56.5918 112.992C56.5918 112.992 53.2044 112.425 51.6334 111.438C51.6334 111.438 52.8117 108.519 51.416 104.781L57.6859 107.616Z" fill="#FFD5B0"/>
<path d="M57.4753 108.26C57.342 108.694 57.1526 109.31 56.9913 109.982C54.2211 109.086 52.6431 106.615 52.6431 106.615L57.4753 108.26Z" fill="#FFB985"/>
<path d="M51.921 106.615C53.1834 108.078 60.2668 111.032 61.2487 107.532C62.2306 104.032 61.7537 99.8806 61.2557 97.3536C60.9401 95.7856 60.1055 92.8036 55.9115 93.2586C51.7456 93.7136 46.3945 100.21 51.921 106.615Z" fill="#FFD5B0"/>
<path d="M49.8451 96.969C49.8451 96.969 46.4436 97.284 45.8124 95.121C45.1812 92.958 47.6008 90.193 49.7399 91.334C51.879 92.475 51.6475 95.2681 51.6475 95.2681" fill="#15004D"/>
<path d="M48.3789 97.2489C48.3789 97.2489 48.7366 94.0219 51.8084 93.4409L50.6582 95.3449L48.3789 97.2489Z" fill="#406AFF"/>
<path d="M60.7365 96.4367C60.7365 96.4367 59.5652 101.456 52.587 101.666C52.587 101.666 51.8997 101.47 51.6332 102.079C51.4859 102.422 51.4298 102.982 51.6051 103.528C52.0329 104.872 52.3064 106.258 52.082 107.651L52.0961 107.812C52.0961 107.812 48.6315 107.378 47.6917 102.401C46.6046 96.6397 51.8576 91.9917 55.4484 92.5447C56.9563 92.7757 60.4139 94.0427 60.7365 96.4367Z" fill="#15004D"/>
<path d="M58.4994 96.3246C58.4994 96.3246 60.6735 99.3136 62.3638 99.3976C62.3638 99.3976 62.9038 95.3306 60.5964 93.6786C57.4404 91.4246 53.8706 92.6076 53.8706 92.6076" fill="#15004D"/>
<path d="M51.6261 111.431C51.6261 111.431 51.2544 112.348 50.6863 112.712C49.8377 113.251 49.1223 113.419 48.3789 113.713C48.3789 113.713 55.0416 118.487 59.9649 113.405C59.9649 113.405 58.1835 112.859 57.6856 112.502C56.4933 111.641 56.7248 111.214 56.7248 111.214" fill="#FFD5B0"/>
<path d="M60.4209 123.877C60.4209 123.877 61.5781 127.412 62.5319 130.058C63.0439 131.479 63.654 132.543 63.8294 132.767C64.3273 133.404 65.0006 134.181 66.1999 133.544C67.3992 132.907 67.5815 132.354 67.3711 131.136C67.1467 129.876 65.1128 122.715 65.1128 122.715" fill="#FFD5B0"/>
<path d="M62.5249 130.058C62.5249 130.058 64.1801 135.665 66.5506 135.14C67.7779 134.818 69.924 130.128 70.8918 128.273C73.9356 122.414 74.174 121.098 74.174 121.098L72.6381 120.384C72.6381 120.384 66.5506 128.189 66.0736 128.931" fill="#FFD5B0"/>
<path d="M63.1209 146.298C55.6167 147.964 48.0703 146.991 44.9424 146.445C45.2369 144.793 45.7208 143.652 46.1276 142.077C47.3549 137.247 46.7869 131.661 46.352 128.35C46.1837 127.02 46.0294 126.061 46.0294 125.662C46.0224 125.347 46.0014 124.934 45.9733 124.465C45.7489 121.595 45.0055 116.457 44.9424 115.771C44.8652 114.973 49.501 113.216 49.501 113.216C49.501 113.216 57.7066 118.158 58.2326 112.74C58.2326 112.74 60.512 113.447 62.2934 114.357C62.637 116.723 62.8123 121.861 62.8825 124.521C62.9105 125.536 62.0268 127.447 62.0268 127.447C62.0268 127.447 62.1601 135.448 62.5669 141.286C62.7141 143.4 63.2331 145.479 63.1209 146.298Z" fill="#FF5476"/>
<path d="M48.3159 121.868C48.3159 121.868 48.2107 125.977 47.6987 128.14C47.6987 128.14 47.1938 128.357 46.3592 128.35C46.1909 127.02 46.0366 126.061 46.0366 125.662C46.0296 125.347 46.0085 124.934 45.9805 124.465L48.3159 121.868Z" fill="#D83D62"/>
<path d="M59.0954 139.004L56.5706 138.143C56.5074 138.122 56.4724 138.052 56.4934 137.989L58.3379 132.634C58.359 132.571 58.4291 132.536 58.4922 132.557L61.017 133.418C61.0801 133.439 61.1152 133.509 61.0942 133.572L59.2497 138.927C59.2286 138.99 59.1585 139.025 59.0954 139.004Z" fill="#0831AE"/>
<path d="M57.342 135.567L57.1527 137.576C57.1527 137.576 57.1106 137.618 56.7459 137.618C56.7038 137.541 56.6968 137.457 56.7248 137.373L57.342 135.567Z" fill="#0831AE"/>
<path d="M42.5862 123.52C42.5862 123.52 42.1584 127.216 41.913 130.016C41.7797 131.521 41.8919 132.746 41.955 133.019C42.1374 133.803 42.4249 134.79 43.7855 134.713C45.1461 134.636 45.5388 134.209 45.8544 133.019C46.1841 131.78 47.3343 124.43 47.3343 124.43" fill="#FFD5B0"/>
<path d="M41.8989 130.149C41.8989 130.149 41.3869 134.3 42.7686 135.609C43.6663 136.19 45.7001 136.344 47.7831 136.547C54.3616 137.184 55.6731 136.918 55.6731 136.918L55.7643 135.231C55.7643 135.231 46.2402 132.494 45.3775 132.326" fill="#FFD5B0"/>
<path d="M57.6998 134.517L57.4333 135.294L57.3632 135.322L57.3421 135.56L57.1528 137.569C57.1528 137.569 57.1107 137.611 56.746 137.611H56.5426C55.9815 137.597 55.5046 137.058 54.3755 136.974L54.8173 134.958C54.8173 134.958 55.5327 135.182 56.241 134.944C56.5917 134.825 56.9915 134.552 57.1948 134.482C57.265 134.468 57.4684 134.482 57.6998 134.517Z" fill="#FFD5B0"/>
<path d="M57.1808 135.245C57.1808 135.245 58.5274 135.644 58.8289 135.658C59.1235 135.672 59.9651 135.427 60.2807 135.399C60.5963 135.364 60.7927 135.581 60.8137 135.63C60.8628 135.749 59.6285 136.358 58.8991 136.421C58.1697 136.491 57.0405 136.19 57.0405 136.19" fill="#FFD5B0"/>
<path d="M56.9142 135.7C56.9142 135.7 58.2608 136.099 58.5623 136.113C58.8569 136.127 59.6985 135.882 60.0141 135.854C60.3297 135.819 60.5261 136.036 60.5471 136.085C60.5962 136.204 59.3618 136.813 58.6325 136.876C57.9031 136.946 56.7739 136.645 56.7739 136.645" fill="#FFD5B0"/>
<path d="M56.7809 136.141C56.7809 136.141 58.1275 136.54 58.429 136.554C58.7236 136.568 59.5652 136.323 59.8808 136.295C60.1964 136.26 60.3928 136.477 60.4138 136.526C60.4629 136.645 59.2285 137.254 58.4992 137.317C57.7698 137.387 56.6406 137.086 56.6406 137.086" fill="#FFD5B0"/>
<path d="M56.5148 136.617C56.5148 136.617 57.8613 137.016 58.1629 137.03C58.4575 137.044 59.2991 136.799 59.6147 136.771C59.9303 136.736 60.1266 136.953 60.1477 137.002C60.1968 137.121 58.9624 137.73 58.2331 137.793C57.5037 137.863 56.3745 137.562 56.3745 137.562" fill="#FFD5B0"/>
<path d="M53.2884 101.862C53.2884 101.862 53.078 100.315 51.6824 100.826C50.5883 101.225 51.3247 103.276 51.7315 103.969C52.1452 104.662 52.9728 104.48 53.092 103.962" fill="#FFD5B0"/>
<path d="M66.5648 126.859C66.5648 126.859 65.3726 127.426 63.1844 127.671C62.8267 127.72 62.448 127.755 62.0342 127.776C61.9641 127.776 61.901 127.783 61.8308 127.783C61.8308 127.783 60.9472 124.808 60.7438 121.294C60.6035 118.914 62.4901 115.673 62.3007 114.35C64.3837 115.232 66.5648 126.859 66.5648 126.859Z" fill="#FF5476"/>
<path d="M46.254 114.658C46.254 114.658 42.9858 115.988 42.0671 120.825C41.2044 125.34 41.0571 127.202 41.0571 127.202C41.0571 127.202 44.8724 128.399 47.1798 127.769C47.6146 126.278 48.3791 121.483 48.3791 121.483" fill="#FF5476"/>
<path d="M60.9751 118.473C60.9751 118.473 62.0552 120.825 62.6092 122.435C63.1562 124.045 62.0271 127.44 62.0271 127.44C62.0271 127.44 63.2615 125.263 63.1072 122.953C63.0581 122.253 62.6513 121.686 62.3708 121.063C61.7396 119.649 60.9751 118.473 60.9751 118.473Z" fill="#D83D62"/>
<path d="M77.3091 116.996C77.1969 116.891 77.0566 117.038 76.9935 117.108C76.9374 117.171 76.6078 117.766 76.6078 117.766C76.4885 117.899 76.3623 118.046 76.2641 118.165C76.3763 118.018 76.5166 117.829 76.6569 117.626C76.7831 117.437 76.8953 117.15 76.9584 116.849C77.0426 116.443 77.0566 116.03 77.0005 115.953C76.9234 115.855 76.6288 116.051 76.5797 116.604C76.4394 116.891 76.2781 117.206 76.1098 117.402C75.8153 117.745 75.5698 118.067 75.5698 118.067C75.5698 118.067 75.7732 117.808 76.0116 117.437C76.1589 117.213 76.3062 116.898 76.3763 116.646C76.5236 116.128 76.6008 115.785 76.5096 115.708C76.4114 115.617 76.194 115.68 76.0747 116.121C75.9345 116.471 75.8082 116.674 75.696 116.933C75.3454 117.353 75.156 117.626 75.156 117.626C75.156 117.626 75.3874 117.241 75.5347 116.779C75.6189 116.506 75.689 116.254 75.696 116.184C75.7171 115.876 75.7662 115.512 75.5137 115.512C75.4155 115.512 75.2051 115.995 75.0648 116.436C74.6861 117.164 74.118 117.913 73.9637 118.032C73.7183 118.228 73.5149 118.375 73.3816 118.032C73.2484 117.689 73.5429 117.017 73.4097 116.646C73.2764 116.275 72.9608 116.366 72.9608 116.366C72.512 117.185 72.505 119.446 72.4629 120.265C72.4559 120.44 72.0771 121.084 72.0771 121.084L73.8585 121.987C73.9497 121.728 74.6721 120.531 74.9947 120.391C75.3173 120.251 75.9555 119.523 76.187 119.152C76.3272 118.921 76.713 118.382 76.9304 117.962C76.9444 117.969 77.4494 117.129 77.3091 116.996Z" fill="#FFD5B0"/>
<path d="M60.358 96.8706C60.358 96.8706 60.344 97.4656 59.9933 98.2846C59.9162 98.4946 59.7899 98.6976 59.6707 98.9216C59.5234 99.1316 59.3902 99.3696 59.2008 99.5726C59.0255 99.7896 58.8081 99.9856 58.5907 100.182C58.3732 100.378 58.1137 100.539 57.8683 100.707C57.6018 100.833 57.3423 100.994 57.0688 101.092C56.7882 101.183 56.5287 101.302 56.2552 101.358C55.9817 101.421 55.7222 101.477 55.4697 101.519C55.2172 101.54 54.9788 101.561 54.7544 101.582C54.3125 101.638 53.9478 101.568 53.6883 101.575C53.4358 101.561 53.2886 101.554 53.2886 101.554C53.2886 101.554 53.4358 101.54 53.6883 101.519C53.9408 101.491 54.3055 101.505 54.7333 101.421C54.9507 101.386 55.1822 101.351 55.4276 101.316C55.6661 101.253 55.9186 101.19 56.1781 101.12C56.4376 101.057 56.69 100.938 56.9565 100.84C57.2231 100.742 57.4615 100.581 57.714 100.455C57.9524 100.301 58.1979 100.154 58.4083 99.9716C58.6187 99.7896 58.8291 99.6076 59.0044 99.4046C59.3691 99.0126 59.6497 98.5926 59.846 98.2076C60.2528 97.4516 60.358 96.8706 60.358 96.8706Z" fill="#15004D"/>
<path d="M52.5172 103.913C52.5172 104.095 52.3699 104.242 52.1875 104.242C52.0052 104.242 51.8579 104.095 51.8579 103.913C51.8579 103.731 52.0052 103.584 52.1875 103.584C52.3699 103.584 52.5172 103.731 52.5172 103.913Z" fill="white"/>
<path d="M51.8154 101.764C51.8154 101.764 52.2012 101.589 52.4887 102.002C52.8604 102.541 52.7692 103.108 52.3484 103.024C52.117 102.982 52.089 102.653 52.1942 102.464C52.3064 102.254 52.5308 102.324 52.5308 102.324C52.5308 102.324 52.3835 101.687 51.8154 101.764Z" fill="#FFB985"/>
<path d="M63.177 127.671C62.8194 127.72 62.4406 127.755 62.0269 127.776V127.44C62.0269 127.44 62.3845 126.663 62.5248 126.173C62.644 125.739 62.8334 124.941 62.8825 124.745C62.8755 124.864 62.8614 125.207 62.8895 125.732C62.9105 126.257 63.0999 127.265 63.177 127.671Z" fill="#D83D62"/>
<path d="M62.7005 79.5458C64.0401 77.5928 64.4959 74.9888 63.486 72.3008C62.7566 70.3758 61.2067 68.8428 59.271 68.1288C53.8427 66.1268 48.73 70.0888 48.73 75.2408C48.73 76.8368 49.2209 78.3208 50.0625 79.5458L50.0695 79.5528C50.4132 80.0498 50.8129 80.4978 51.2548 80.8968L56.1431 85.7969C56.2763 85.9298 56.4867 85.9298 56.62 85.7969L61.5083 80.8898C61.9501 80.4908 62.3499 80.0428 62.6935 79.5458H62.7005ZM57.4686 73.5608C57.7141 73.7008 57.9245 73.9038 58.0647 74.1488C59.1237 76.0248 57.1881 77.9638 55.2945 76.9208C55.042 76.7808 54.8316 76.5708 54.6913 76.3188C53.6604 74.4218 55.582 72.5178 57.4686 73.5608Z" fill="#FC5475"/>
<path d="M324.424 100.105H312.13C311.393 100.105 310.79 99.5098 310.79 98.7678V90.1368C310.79 89.4018 311.386 88.7998 312.13 88.7998H324.424C325.16 88.7998 325.764 89.3948 325.764 90.1368V98.7678C325.764 99.5028 325.16 100.105 324.424 100.105Z" fill="#6CE3FF"/>
<path d="M313.967 99.23C313.967 99.23 314.423 103.486 311.821 103.927C311.821 103.927 317.018 105.11 316.898 99.23" fill="#6CE3FF"/>
<path d="M314.739 94.456C314.739 94.925 314.36 95.303 313.89 95.303C313.42 95.303 313.042 94.925 313.042 94.456C313.042 93.987 313.42 93.609 313.89 93.609C314.36 93.602 314.739 93.987 314.739 94.456Z" fill="#EEFAFF"/>
<path d="M319.129 94.456C319.129 94.925 318.75 95.303 318.28 95.303C317.81 95.303 317.432 94.925 317.432 94.456C317.432 93.987 317.81 93.609 318.28 93.609C318.743 93.602 319.129 93.987 319.129 94.456Z" fill="#EEFAFF"/>
<path d="M323.513 94.456C323.513 94.925 323.134 95.303 322.664 95.303C322.194 95.303 321.815 94.925 321.815 94.456C321.815 93.987 322.194 93.609 322.664 93.609C323.134 93.602 323.513 93.987 323.513 94.456Z" fill="#EEFAFF"/>
<path d="M87.8571 96.1849H100.151C100.888 96.1849 101.491 95.5899 101.491 94.8479V86.2169C101.491 85.4819 100.895 84.8799 100.151 84.8799H87.8571C87.1207 84.8799 86.5176 85.4749 86.5176 86.2169V94.8479C86.5176 95.5899 87.1207 96.1849 87.8571 96.1849Z" fill="#6CE3FF"/>
<path d="M98.314 95.3101C98.314 95.3101 97.8581 99.5661 100.46 100.007C100.46 100.007 95.2632 101.19 95.3824 95.3101" fill="#6CE3FF"/>
<path d="M97.5425 90.536C97.5425 91.005 97.9212 91.383 98.3911 91.383C98.861 91.383 99.2397 91.005 99.2397 90.536C99.2397 90.067 98.861 89.689 98.3911 89.689C97.9212 89.689 97.5425 90.067 97.5425 90.536Z" fill="#EEFAFF"/>
<path d="M93.1523 90.536C93.1523 91.005 93.5311 91.383 94.001 91.383C94.4709 91.383 94.8496 91.005 94.8496 90.536C94.8496 90.067 94.4709 89.689 94.001 89.689C93.5381 89.689 93.1523 90.067 93.1523 90.536Z" fill="#EEFAFF"/>
<path d="M88.769 90.536C88.769 91.005 89.1478 91.383 89.6177 91.383C90.0876 91.383 90.4663 91.005 90.4663 90.536C90.4663 90.067 90.0876 89.689 89.6177 89.689C89.1478 89.689 88.769 90.067 88.769 90.536Z" fill="#EEFAFF"/>
<path d="M112.838 208.409C112.838 208.409 113.519 209.088 113.666 210.103C113.813 211.118 113.533 211.965 113.533 212.189C113.533 212.413 112.628 212.623 111.387 212.637C110.145 212.658 109.5 212.357 108.995 212.28C108.483 212.203 106.302 212.602 105.229 212.637C104.156 212.672 102.648 212.539 102.192 212.336C101.743 212.126 101.491 210.859 103.77 210.67C105.089 210.558 106.695 209.809 107.803 209.27C108.609 208.878 109.009 208.591 109.009 208.591C109.009 208.591 109.135 207.905 109.381 207.926C109.752 207.954 110.65 208.507 111.218 208.521C111.884 208.542 112.551 208.528 112.838 208.409Z" fill="#012851"/>
<path d="M129.811 208.409C129.811 208.409 130.484 209.088 130.639 210.103C130.786 211.118 130.505 211.965 130.505 212.189C130.505 212.413 129.601 212.623 128.359 212.637C127.118 212.658 126.473 212.357 125.968 212.28C125.456 212.203 124.319 212.56 123.246 212.595C122.173 212.63 119.614 212.539 119.165 212.336C118.716 212.126 119.67 210.586 121.949 210.397C123.267 210.285 123.513 210.019 124.621 209.48C125.063 209.263 125.512 208.969 125.827 208.738C126.094 208.549 126.038 208.101 126.227 208.017C126.648 207.828 127.125 208.493 128.016 208.521C128.752 208.549 129.509 208.535 129.811 208.409Z" fill="#012851"/>
<path d="M106.961 178.659C107.151 182.971 108.56 199.078 109.374 207.933C111.085 209.333 112.081 208.57 112.839 208.409C113.091 204.741 114.199 197.419 114.704 193.618C115.363 188.592 116.009 183.727 115.041 180.136C114.69 178.834 114.662 177.469 115.09 176.188C115.125 176.083 115.16 175.978 115.195 175.866L115.202 175.859C115.209 175.838 115.223 175.803 115.23 175.775C115.314 175.509 115.405 175.229 115.497 174.949C115.511 174.928 115.518 174.914 115.518 174.886C116.815 171.001 118.456 166.017 119.389 162.524C119.817 168.607 120.392 177.343 120.7 179.415C120.736 179.66 120.778 179.884 120.82 180.094C121.521 184.609 124.965 199.148 126.353 208.178C127.672 208.927 127.973 209.228 129.811 208.416C129.713 205.273 130.702 198.098 130.772 194.801C130.863 190.776 130.926 186.786 130.056 183.349C129.25 180.171 128.983 176.888 129.509 173.654C130.232 169.195 131.052 164.092 131.249 160.942C131.599 159.612 134.103 148.86 125.645 141.769C125.645 141.769 118.351 143.953 113.694 144.212C110.019 144.422 109.086 145.374 109.086 145.374C109.086 145.374 108.399 152.108 107.838 158.569C107.586 164.351 107.179 174.039 107.003 176.307C106.954 176.839 106.961 177.322 107.003 177.756C106.961 178.036 106.94 178.33 106.961 178.659Z" fill="#252BA2"/>
<path d="M115.518 174.886C116.815 171.001 118.456 166.017 119.389 162.524L118.807 154.649C118.814 154.649 117.299 168.978 115.518 174.886Z" fill="#172577"/>
<path d="M105.145 118.648L98.0543 130.961C98.0543 130.961 97.4441 134.412 101.301 133.726C105.159 133.04 110.412 123.121 110.412 123.121" fill="#FFD5B0"/>
<path d="M106.884 128.742C106.884 128.742 104.205 132.291 103.048 133.159C102.115 133.866 100.586 134.622 99.2678 133.754C97.9493 132.886 91.49 127.468 86.5176 121.777C86.5176 121.777 87.282 121.035 88.0114 120.097C88.0114 120.097 90.7256 122.4 94.2533 124.269C97.788 126.138 100.713 128.581 100.713 128.581" fill="#FFD5B0"/>
<path d="M101.771 123.499C101.771 123.499 103.735 125.935 106.891 127.146C107.445 127.356 108.034 127.538 108.666 127.65L108.497 119.327L108.357 112.551C108.35 112.551 103.188 120.552 101.771 123.499Z" fill="#9FDEF7"/>
<path d="M106.884 127.146C107.438 127.356 108.027 127.538 108.659 127.65L108.49 119.327C107.992 121.217 107.263 124.255 106.884 127.146Z" fill="#7FD5EF"/>
<path d="M130.645 127.342C130.996 122.974 131.599 117.927 131.718 115.12C131.192 114.217 130.617 113.482 130.049 112.88C128.359 111.074 126.725 110.465 126.479 110.388C126.458 110.381 126.451 110.374 126.451 110.374C123.941 109.695 121.121 109.275 119.382 109.219C114.374 109.065 109.535 111.277 108.35 112.551C107.845 113.09 108.034 118.2 108.406 123.982C108.385 126.453 109.114 131.57 109.178 136.141C109.255 142.007 108.673 147.208 108.673 147.208C118.589 150.4 130.519 147.012 130.519 147.012C130.021 145.612 129.684 143.085 129.46 140.544L130.512 129.281C130.547 128.651 130.596 128 130.645 127.342Z" fill="#9FDEF7"/>
<path d="M110.18 94.4487C110.18 94.4487 109.57 99.3487 111.169 99.8457C112.768 100.343 112.579 98.2147 112.579 98.2147L112.586 95.8557" fill="#012851"/>
<path d="M122.426 110.332C122.426 110.332 120.939 112.943 116.521 112.404C112.074 111.858 114.816 109.583 114.816 109.583C114.816 109.583 115.027 108.925 115.279 108.057C115.525 107.21 115.812 106.16 115.988 105.334L117.629 103.955L121.107 101.029C121.107 101.036 120.658 108.078 122.426 110.332Z" fill="#FFD5B0"/>
<path d="M119.781 103.962C119.781 103.962 118.386 107.042 115.279 108.057C115.524 107.21 115.812 106.16 115.987 105.334L117.628 103.955L119.781 103.962Z" fill="#FFB985"/>
<path d="M110.861 95.933C110.861 95.933 110.321 105.705 113.294 106.783C113.294 106.783 116.598 107.483 119.459 104.347C120.287 103.444 120.89 102.366 121.303 101.218C121.984 99.356 123.029 95.891 122.362 93.672C121.43 90.522 111.723 88.569 110.861 95.933Z" fill="#FFD5B0"/>
<path d="M111.59 93.7488C111.59 93.7488 113.939 93.5388 115.714 94.3578C117.488 95.1768 116.31 98.1868 117.691 99.6288C119.073 101.071 123.716 99.5308 123.716 99.5308C123.716 99.5308 125.659 93.6928 122.587 92.7408C119.571 88.4848 113.834 89.2338 111.59 93.7488Z" fill="#012851"/>
<path d="M118.659 98.6558C118.659 98.6558 120.097 98.8798 120.511 101.099C120.925 103.318 120.448 106.461 121.17 106.461C121.893 106.468 121.416 104.62 122.363 103.136C122.825 102.401 124.628 98.9358 123.576 95.6598C122.496 92.3068 118.533 89.1568 115.903 90.1228C113.35 91.0608 118.659 98.6558 118.659 98.6558Z" fill="#012851"/>
<path d="M118.673 100.189C118.673 100.189 118.975 98.362 120.272 98.691C121.984 99.125 120.826 103.493 119.073 102.597" fill="#FFD5B0"/>
<path d="M117.208 95.6249C117.208 95.6249 109.29 97.9839 108.02 92.2789C108.02 92.2789 107.81 90.9699 108.21 90.8159C108.609 90.6619 112.908 90.8229 116.317 90.0039" fill="#012851"/>
<path d="M132.728 120.104C132.728 120.104 134.18 128.301 134.657 132.613C134.86 134.447 134.51 134.293 134.418 134.608C134.117 135.672 131.213 136.526 129.691 134.958C128.422 131.689 126.178 122.757 126.178 122.757" fill="#FFD5B0"/>
<path d="M124.895 118.83C124.895 121.637 125.694 127.153 125.694 127.153C127.048 127.727 128.962 127.615 130.652 127.335C132.672 126.985 134.664 126.327 134.664 126.327C134.664 126.327 134.363 123.149 133.64 120.209C133.058 117.857 132.076 115.701 131.726 115.113C131.2 114.21 130.624 113.475 130.056 112.873L124.895 118.83Z" fill="#9FDEF7"/>
<path d="M128.955 131.563C128.955 131.563 132.777 130.604 133.268 130.793C133.759 130.982 134.608 131.437 134.699 133.012C134.797 134.587 134.341 142.994 132.77 150.379C132.77 150.379 131.718 150.211 130.533 150.197C130.533 150.197 130.75 146.648 130.119 142.707C129.488 138.766 129.691 134.965 129.691 134.965" fill="#FFD5B0"/>
<path d="M126.479 110.388C126.479 110.388 130.084 111.473 131.094 112.971C132.083 114.434 133.633 120.216 133.633 120.216L129.628 118.494" fill="#9FDEF7"/>
<path d="M128.899 153.718C130.302 153.368 132.876 153.158 134.818 154.061C137.098 155.111 137.448 159.199 137.448 159.199H136.466C136.466 159.199 136.27 156.308 134.531 155.076C133.528 154.362 130.723 154.341 129.558 154.544C128.724 154.691 127.742 155.237 127.216 156.924C126.69 158.611 126.732 159.199 126.732 159.199H125.813C125.806 159.199 125.946 154.46 128.899 153.718Z" fill="#2D287C"/>
<path d="M130.554 149.665C130.554 149.665 130.596 150.596 130.056 151.233C129.755 151.583 129.509 151.66 129.299 151.926C129.088 152.192 128.569 152.92 128.17 153.207C127.77 153.494 127.665 153.634 128.064 153.83C128.464 154.026 129.215 153.445 129.432 153.298C129.649 153.151 130 153.116 130.147 153.207C130.337 153.319 130.26 154.341 129.72 154.523C129.72 154.523 130.161 155.286 130.372 155.321C130.582 155.356 130.786 155.125 130.884 155.146C130.982 155.174 131.115 155.349 131.291 155.37C131.459 155.384 131.592 155.146 131.873 155.174C132.153 155.202 132.097 155.307 132.371 155.363C132.644 155.419 132.854 155.139 133.002 155.153C133.156 155.16 133.282 155.272 133.437 155.188C133.591 155.104 133.843 153.732 133.892 153.207C133.942 152.682 132.911 150.652 133.037 149.084" fill="#FFD5B0"/>
<path d="M88.355 120.363C88.355 120.363 86.7349 116.989 85.6198 116.205C85.6198 116.205 85.234 116.268 85.2831 116.744C85.3322 117.22 86.0125 117.787 86.0476 118.228C86.0827 118.669 85.7881 118.613 85.4164 118.529C85.0517 118.452 82.3305 116.982 82.064 117.115C81.7905 117.255 82.078 117.528 82.2674 117.682C82.4568 117.829 83.9155 118.718 83.9155 118.718C83.9155 118.718 81.2996 117.325 81.1102 117.822C80.991 118.144 83.4176 119.355 83.4176 119.355C83.4176 119.355 81.3276 118.221 81.2364 118.648C81.1593 119.019 82.9267 119.817 82.9267 119.817C82.9267 119.817 81.8326 119.264 81.7554 119.509C81.6572 119.824 83.1721 120.629 83.614 120.909C84.0558 121.189 85.1289 121.637 85.5497 121.616C85.9705 121.602 86.2861 121.553 86.5175 121.791" fill="#FFD5B0"/>
<path d="M142.806 188.34H120.939C120.083 188.34 119.396 187.647 119.396 186.8V160.193C119.396 159.339 120.09 158.653 120.939 158.653H142.806C143.662 158.653 144.349 159.346 144.349 160.193V186.8C144.349 187.647 143.655 188.34 142.806 188.34Z" fill="#009AEF"/>
<path d="M142.806 183.034H120.925C120.076 183.034 119.382 182.348 119.382 181.494V160.172C119.382 159.325 120.069 158.632 120.925 158.632H142.806C143.655 158.632 144.349 159.318 144.349 160.172V181.494C144.349 182.348 143.662 183.034 142.806 183.034Z" fill="#00B8F0"/>
<path d="M131.95 168.936C131.95 168.936 122.692 169.02 119.88 162.867C119.88 162.867 121.759 170.042 131.95 170.042C142.14 170.042 144.02 162.867 144.02 162.867C141.214 169.027 131.95 168.936 131.95 168.936Z" fill="#009AEF"/>
<path d="M133.303 171.008H130.189C129.958 171.008 129.775 170.819 129.775 170.595V168.453C129.775 168.222 129.965 168.04 130.189 168.04H133.303C133.535 168.04 133.717 168.229 133.717 168.453V170.595C133.717 170.826 133.535 171.008 133.303 171.008Z" fill="#0092D3"/>
<path opacity="0.4" d="M21.3279 163.44C22.4702 160.88 21.3167 157.88 18.7515 156.74C16.1862 155.6 13.1805 156.751 12.0382 159.311C10.8958 161.872 12.0493 164.872 14.6146 166.012C17.1798 167.152 20.1855 166.001 21.3279 163.44Z" fill="#CAF5FF"/>
<path opacity="0.4" d="M262.913 65.7111C264.899 63.7292 264.899 60.5159 262.913 58.534C260.927 56.5521 257.708 56.5521 255.722 58.534C253.737 60.5159 253.737 63.7292 255.722 65.7111C257.708 67.693 260.927 67.693 262.913 65.7111Z" fill="#CAF5FF"/>
<path opacity="0.4" d="M388.018 133.58C388.954 129.841 386.675 126.052 382.928 125.118C379.182 124.184 375.386 126.459 374.45 130.198C373.514 133.938 375.793 137.726 379.54 138.66C383.286 139.594 387.082 137.32 388.018 133.58Z" fill="#CAF5FF"/>
<path opacity="0.6" d="M341.585 149.035C341.585 150.96 340.021 152.521 338.093 152.521C336.164 152.521 334.6 150.96 334.6 149.035C334.6 147.11 336.164 145.549 338.093 145.549C340.021 145.549 341.585 147.11 341.585 149.035Z" fill="#CAF5FF"/>
<path opacity="0.6" d="M82.3235 80.5048C82.3235 81.7718 81.2996 82.7938 80.0302 82.7938C78.7608 82.7938 77.7368 81.7718 77.7368 80.5048C77.7368 79.2378 78.7608 78.2158 80.0302 78.2158C81.2926 78.2158 82.3235 79.2378 82.3235 80.5048Z" fill="#CAF5FF"/>
<path opacity="0.6" d="M60.7294 5.3529C61.996 5.3529 63.0228 4.32808 63.0228 3.0639C63.0228 1.79972 61.996 0.774902 60.7294 0.774902C59.4628 0.774902 58.436 1.79972 58.436 3.0639C58.436 4.32808 59.4628 5.3529 60.7294 5.3529Z" fill="#CAF5FF"/>
<path opacity="0.6" d="M196.971 33.0311C198.237 33.0311 199.264 32.0063 199.264 30.7421C199.264 29.4779 198.237 28.4531 196.971 28.4531C195.704 28.4531 194.677 29.4779 194.677 30.7421C194.677 32.0063 195.704 33.0311 196.971 33.0311Z" fill="#CAF5FF"/>
<path opacity="0.6" d="M27.7318 146.424C28.9984 146.424 30.0252 145.399 30.0252 144.135C30.0252 142.871 28.9984 141.846 27.7318 141.846C26.4653 141.846 25.4385 142.871 25.4385 144.135C25.4385 145.399 26.4653 146.424 27.7318 146.424Z" fill="#CAF5FF"/>
<path opacity="0.6" d="M262.763 146.424C262.763 147.691 261.739 148.713 260.469 148.713C259.2 148.713 258.176 147.691 258.176 146.424C258.176 145.157 259.2 144.135 260.469 144.135C261.732 144.135 262.763 145.157 262.763 146.424Z" fill="#CAF5FF"/>
<path opacity="0.6" d="M327.972 80.5048C327.972 81.7718 326.949 82.7938 325.679 82.7938C324.41 82.7938 323.386 81.7718 323.386 80.5048C323.386 79.2378 324.41 78.2158 325.679 78.2158C326.949 78.2158 327.972 79.2378 327.972 80.5048Z" fill="#CAF5FF"/>
<path opacity="0.6" d="M311.687 45.8058C311.687 47.7308 310.123 49.2918 308.195 49.2918C306.266 49.2918 304.702 47.7308 304.702 45.8058C304.702 43.8808 306.266 42.3198 308.195 42.3198C310.116 42.3198 311.687 43.8808 311.687 45.8058Z" fill="#CAF5FF"/>
<path opacity="0.4" d="M134.26 32.2166C135.079 27.2262 131.689 22.5181 126.69 21.701C121.69 20.8838 116.973 24.2669 116.154 29.2574C115.335 34.2479 118.725 38.9559 123.725 39.7731C128.725 40.5902 133.442 37.2071 134.26 32.2166Z" fill="#CAF5FF"/>
<path d="M46.5205 54.0308V58.4408" stroke="#CAF5FF" stroke-miterlimit="10" stroke-linecap="round" stroke-linejoin="round"/>
<path d="M48.7299 56.2358H44.3115" stroke="#CAF5FF" stroke-miterlimit="10" stroke-linecap="round" stroke-linejoin="round"/>
<path d="M74.7139 102.569V106.979" stroke="#CAF5FF" stroke-miterlimit="10" stroke-linecap="round" stroke-linejoin="round"/>
<path d="M76.9233 104.774H72.5049" stroke="#CAF5FF" stroke-miterlimit="10" stroke-linecap="round" stroke-linejoin="round"/>
<path d="M150.002 13.27V17.673" stroke="#CAF5FF" stroke-width="2" stroke-miterlimit="10" stroke-linecap="round" stroke-linejoin="round"/>
<path d="M152.204 15.4751H147.793" stroke="#CAF5FF" stroke-width="2" stroke-miterlimit="10" stroke-linecap="round" stroke-linejoin="round"/>
<path d="M276.796 69.6128V74.0228" stroke="#CAF5FF" stroke-width="2" stroke-miterlimit="10" stroke-linecap="round" stroke-linejoin="round"/>
<path d="M278.998 71.8179H274.587" stroke="#CAF5FF" stroke-width="2" stroke-miterlimit="10" stroke-linecap="round" stroke-linejoin="round"/>
<path d="M362.268 92.251V96.661" stroke="#CAF5FF" stroke-width="2" stroke-miterlimit="10" stroke-linecap="round" stroke-linejoin="round"/>
<path d="M364.477 94.4561H360.059" stroke="#CAF5FF" stroke-width="2" stroke-miterlimit="10" stroke-linecap="round" stroke-linejoin="round"/>
<path d="M388.217 167.844V172.254" stroke="#CAF5FF" stroke-width="2" stroke-miterlimit="10" stroke-linecap="round" stroke-linejoin="round"/>
<path d="M390.426 170.049H386.008" stroke="#CAF5FF" stroke-width="2" stroke-miterlimit="10" stroke-linecap="round" stroke-linejoin="round"/>
<path d="M146.264 240.546H136.263C134.496 240.546 133.065 239.118 133.065 237.354V205.777C133.065 204.013 134.496 202.585 136.263 202.585H146.264C148.031 202.585 149.462 204.013 149.462 205.777V237.354C149.462 239.118 148.031 240.546 146.264 240.546Z" fill="#353535"/>
<path d="M146.299 231.831H136.235C134.488 231.831 133.072 230.417 133.072 228.674V205.749C133.072 204.006 134.488 202.592 136.235 202.592H146.299C148.045 202.592 149.462 204.006 149.462 205.749V228.674C149.462 230.417 148.045 231.831 146.299 231.831Z" fill="#444444"/>
<path d="M253.737 240.546H243.736C241.968 240.546 240.538 239.118 240.538 237.354V205.777C240.538 204.013 241.968 202.585 243.736 202.585H253.737C255.504 202.585 256.935 204.013 256.935 205.777V237.354C256.928 239.118 255.497 240.546 253.737 240.546Z" fill="#353535"/>
<path d="M253.772 231.831H243.707C241.961 231.831 240.544 230.417 240.544 228.674V205.749C240.544 204.006 241.961 202.592 243.707 202.592H253.772C255.518 202.592 256.935 204.006 256.935 205.749V228.674C256.928 230.417 255.518 231.831 253.772 231.831Z" fill="#444444"/>
<path d="M207.498 145.157C207.336 144.646 206.915 144.261 206.389 144.149C206.368 144.142 206.34 144.142 206.319 144.135C198.857 142.518 191.142 142.518 183.68 144.135C183.659 144.142 183.631 144.142 183.61 144.149C183.084 144.261 182.67 144.646 182.502 145.157L180.686 150.869L195 150.379L209.314 150.869L207.498 145.157Z" fill="#FFDD4D"/>
<path d="M252.074 218.468L252.025 218.454V230.102H245.222C238.433 230.102 195 230.102 195 230.102C195 230.102 194.825 230.102 194.502 230.102H137.974V218.454L137.925 218.468C137.925 218.468 134.685 209.109 136.382 200.373C137.035 197.006 137.827 194.514 138.536 192.75C139.552 190.195 140.401 189.159 140.401 189.159C140.583 188.879 140.773 188.606 140.969 188.333C144.006 184.294 148.144 179.821 148.144 179.821C152.78 166.892 160.775 154.593 160.775 154.593C163.321 152.997 169.058 151.835 175.124 151.009C188.309 149.203 201.684 149.203 214.876 151.009C220.942 151.835 226.679 152.997 229.225 154.593C229.225 154.593 237.22 166.892 241.856 179.821C241.856 179.821 245.994 184.294 249.024 188.333C249.234 188.606 249.416 188.886 249.606 189.173V189.159C249.606 189.159 250.342 190.062 251.275 192.267C252.032 194.052 252.909 196.684 253.624 200.373C255.315 209.109 252.074 218.468 252.074 218.468Z" fill="#FECE00"/>
<path d="M234.569 178.974C234.569 178.974 244.865 188.046 244.619 189.558C244.374 191.077 238.693 192.295 233.131 195.676C227.57 199.064 213.992 202.032 194.775 202.032C175.559 202.032 161.981 199.064 156.419 195.676C150.858 192.288 145.177 191.07 144.932 189.558C144.686 188.039 154.982 178.974 154.982 178.974" stroke="#F78A37" stroke-width="0.5314" stroke-miterlimit="10"/>
<path opacity="0.4" d="M252.074 218.468L252.025 218.454V229.941C251.899 229.997 251.766 230.053 251.626 230.102H245.222C238.433 230.102 195 230.102 195 230.102C195 230.102 194.825 230.102 194.502 230.102H137.974V218.454L137.925 218.468C137.925 218.468 134.685 209.109 136.382 200.373C137.035 197.006 137.827 194.514 138.536 192.75C138.732 192.841 138.942 192.918 139.181 192.988C141.572 193.667 145.388 193.716 150.844 196.467C157.38 199.764 164.422 201.941 171.702 202.683C179.388 203.46 188.506 204.223 193.969 204.132H195.035C200.498 204.223 209.616 203.46 217.302 202.683C224.589 201.948 231.631 199.764 238.167 196.467C243.623 193.716 247.432 193.667 249.83 192.988C250.447 192.813 250.917 192.561 251.275 192.267C252.032 194.052 252.909 196.684 253.624 200.373C255.315 209.109 252.074 218.468 252.074 218.468Z" fill="#F9B234"/>
<path d="M234.772 180.311C228.509 179.569 209.707 177.49 195 177.49C180.3 177.49 161.49 179.569 155.227 180.311C154.21 180.437 153.39 179.478 153.691 178.491C154.771 174.963 156.293 170.952 157.787 167.298C159.54 163.028 161.259 159.241 162.177 157.267C162.619 156.308 163.412 155.552 164.394 155.174C173.321 151.73 187.341 151.415 195 151.415C202.658 151.415 216.678 151.73 225.606 155.174C226.588 155.552 227.38 156.308 227.822 157.267C229.519 160.921 233.98 170.826 236.308 178.491C236.61 179.478 235.789 180.437 234.772 180.311Z" fill="#CCF5FF"/>
<path d="M236.309 178.498C235.229 174.97 233.707 170.959 232.213 167.305C227.675 169.909 217.162 173.836 195 173.836C172.838 173.836 162.325 169.909 157.787 167.305C156.286 170.959 154.772 174.97 153.692 178.498C153.39 179.478 154.204 180.437 155.227 180.318C161.49 179.576 180.293 177.497 195 177.497C209.7 177.497 228.51 179.576 234.773 180.318C235.79 180.437 236.61 179.478 236.309 178.498Z" fill="#A1E9FF"/>
<path d="M187.95 145.238V144.578H192.555V145.238H190.624V150.718H189.881V145.238H187.95ZM193.237 150.718H192.458L194.712 144.578H195.48L197.734 150.718H196.955L195.12 145.549H195.072L193.237 150.718ZM193.525 148.32H196.667V148.979H193.525V148.32ZM188.645 154.578L190.228 157.132H190.276L191.859 154.578H192.735L190.804 157.648L192.735 160.718H191.859L190.276 158.212H190.228L188.645 160.718H187.77L189.749 157.648L187.77 154.578H188.645ZM194.446 154.578V160.718H193.703V154.578H194.446Z" fill="#5539B4"/>
<path opacity="0.5" d="M150.164 201.913C151.476 204.559 151.377 208.78 148.726 210.089C146.075 211.398 141.867 209.312 140.556 206.659C139.244 204.013 140.331 200.8 142.982 199.491C145.633 198.182 148.853 199.267 150.164 201.913Z" fill="#D18619"/>
<path d="M145.037 209.067C148 209.067 150.402 206.669 150.402 203.712C150.402 200.754 148 198.357 145.037 198.357C142.074 198.357 139.672 200.754 139.672 203.712C139.672 206.669 142.074 209.067 145.037 209.067Z" fill="#A1E9FF"/>
<path d="M144.076 206.19C145.815 206.19 147.225 204.783 147.225 203.047C147.225 201.311 145.815 199.904 144.076 199.904C142.337 199.904 140.927 201.311 140.927 203.047C140.927 204.783 142.337 206.19 144.076 206.19Z" fill="#CCF5FF"/>
<path opacity="0.5" d="M158.699 208.871C159.547 210.579 159.484 213.302 157.773 214.149C156.062 214.996 153.348 213.645 152.499 211.937C151.65 210.229 152.352 208.157 154.063 207.31C155.767 206.463 157.85 207.163 158.699 208.871Z" fill="#D18619"/>
<path d="M158.846 210.033C158.846 211.944 157.296 213.491 155.382 213.491C153.467 213.491 151.917 211.944 151.917 210.033C151.917 208.122 153.467 206.575 155.382 206.575C157.296 206.575 158.846 208.122 158.846 210.033Z" fill="#A1E9FF"/>
<path d="M156.798 209.606C156.798 210.726 155.886 211.636 154.764 211.636C153.642 211.636 152.73 210.726 152.73 209.606C152.73 208.486 153.642 207.576 154.764 207.576C155.886 207.576 156.798 208.486 156.798 209.606Z" fill="#CCF5FF"/>
<path opacity="0.5" d="M239.598 201.913C238.286 204.559 238.385 208.78 241.036 210.089C243.687 211.398 247.895 209.312 249.206 206.659C250.518 204.013 249.431 200.8 246.78 199.491C244.136 198.182 240.916 199.267 239.598 201.913Z" fill="#D18619"/>
<path d="M244.725 209.067C247.688 209.067 250.09 206.669 250.09 203.712C250.09 200.754 247.688 198.357 244.725 198.357C241.761 198.357 239.359 200.754 239.359 203.712C239.359 206.669 241.761 209.067 244.725 209.067Z" fill="#A1E9FF"/>
<path d="M245.686 206.19C247.425 206.19 248.835 204.783 248.835 203.047C248.835 201.311 247.425 199.904 245.686 199.904C243.946 199.904 242.537 201.311 242.537 203.047C242.537 204.783 243.946 206.19 245.686 206.19Z" fill="#CCF5FF"/>
<path opacity="0.5" d="M231.069 208.871C230.221 210.579 230.284 213.302 231.995 214.149C233.706 214.996 236.42 213.645 237.269 211.937C238.118 210.229 237.416 208.157 235.705 207.31C233.994 206.463 231.918 207.163 231.069 208.871Z" fill="#D18619"/>
<path d="M230.915 210.033C230.915 211.944 232.465 213.491 234.38 213.491C236.294 213.491 237.844 211.944 237.844 210.033C237.844 208.122 236.294 206.575 234.38 206.575C232.465 206.575 230.915 208.122 230.915 210.033Z" fill="#A1E9FF"/>
<path d="M232.963 209.606C232.963 210.726 233.875 211.636 234.997 211.636C236.119 211.636 237.031 210.726 237.031 209.606C237.031 208.486 236.119 207.576 234.997 207.576C233.875 207.576 232.963 208.486 232.963 209.606Z" fill="#CCF5FF"/>
<path d="M192.763 208.773V217.285C192.763 218.174 192.04 218.888 191.15 218.874C187.117 218.825 176.408 218.566 169.71 217.32C168.286 217.054 167.087 216.123 166.47 214.814C166.077 213.981 165.446 212.945 164.443 211.846C163.019 210.292 162.276 208.045 161.911 206.47C161.701 205.588 162.444 204.769 163.342 204.902C167.718 205.546 179.585 207.121 191.164 207.177C192.047 207.191 192.763 207.898 192.763 208.773Z" fill="#3E3E3E"/>
<path d="M196.248 208.773V217.285C196.248 218.174 196.97 218.888 197.861 218.874C201.894 218.825 212.603 218.566 219.301 217.32C220.725 217.054 221.924 216.123 222.541 214.814C222.934 213.981 223.565 212.945 224.568 211.846C225.992 210.292 226.735 208.045 227.1 206.47C227.31 205.588 226.567 204.769 225.669 204.902C221.293 205.546 209.426 207.121 197.847 207.177C196.956 207.191 196.248 207.898 196.248 208.773Z" fill="#3E3E3E"/>
<path d="M253.183 219.077C253.021 218.622 252.559 218.356 252.089 218.468C248.757 219.28 234.029 222.199 195.007 222.199C155.978 222.199 141.257 219.28 137.926 218.468C137.456 218.356 136.993 218.622 136.832 219.077C135.254 223.571 136.614 227.967 137.456 229.99C137.757 230.725 138.381 231.278 139.153 231.481C154.737 235.632 195.014 235.317 195.014 235.317C195.014 235.317 235.306 235.632 250.882 231.481C251.647 231.278 252.264 230.725 252.566 229.99C253.4 227.967 254.768 223.571 253.183 219.077Z" fill="#D18619"/>
<path d="M208.248 231.831H180.756C180.307 231.831 179.942 231.467 179.942 231.019V225.923C179.942 225.475 180.307 225.111 180.756 225.111H208.248C208.697 225.111 209.062 225.475 209.062 225.923V231.019C209.062 231.467 208.697 231.831 208.248 231.831Z" fill="white"/>
<path d="M145.374 182.929C145.465 182.747 146.04 181.599 145.233 180.927C145.009 180.738 144.616 180.633 144.209 180.584C143.48 180.486 142.758 180.787 142.274 181.34C141.965 181.697 141.425 182.068 140.492 182.208C138.472 182.516 133.914 181.641 132.427 180.108C131.557 179.219 131.333 177.357 132.104 175.719C132.111 175.698 132.111 175.684 132.111 175.684C132.672 174.508 133.738 173.451 135.45 172.94C139.574 171.715 145.114 172.975 146.959 174.242C148.796 175.516 149.624 180.073 149.624 180.073L145.36 182.95C145.367 182.943 145.367 182.936 145.374 182.929Z" fill="#FECE00"/>
<path opacity="0.4" d="M145.374 182.929C145.465 182.747 146.04 181.599 145.233 180.927C145.009 180.738 144.616 180.633 144.209 180.584C143.48 180.486 142.758 180.787 142.274 181.34C141.965 181.697 141.425 182.068 140.492 182.208C138.472 182.516 133.914 181.641 132.427 180.108C131.557 179.219 131.333 177.357 132.104 175.719C132.055 176.069 131.691 178.512 136.046 179.324C140.436 180.143 141.432 178.155 143.22 178.092C144.995 178.036 147.52 179.891 145.374 182.929Z" fill="#F9B234"/>
<path d="M244.626 182.929C244.535 182.747 243.96 181.599 244.766 180.927C244.991 180.738 245.383 180.633 245.79 180.584C246.52 180.486 247.242 180.787 247.726 181.34C248.035 181.697 248.575 182.068 249.507 182.208C251.527 182.516 256.086 181.641 257.573 180.108C258.442 179.219 258.667 177.357 257.895 175.719C257.888 175.698 257.888 175.684 257.888 175.684C257.327 174.508 256.261 173.451 254.55 172.94C250.426 171.715 244.886 172.975 243.041 174.242C241.204 175.516 240.376 180.073 240.376 180.073L244.64 182.95C244.633 182.943 244.633 182.936 244.626 182.929Z" fill="#FECE00"/>
<path opacity="0.4" d="M244.626 182.929C244.535 182.747 243.96 181.599 244.766 180.927C244.991 180.738 245.383 180.633 245.79 180.584C246.519 180.486 247.242 180.787 247.726 181.34C248.034 181.697 248.574 182.068 249.507 182.208C251.527 182.516 256.086 181.641 257.572 180.108C258.442 179.219 258.667 177.357 257.895 175.719C257.944 176.069 258.309 178.512 253.954 179.324C249.563 180.143 248.567 178.155 246.779 178.092C245.005 178.036 242.48 179.891 244.626 182.929Z" fill="#F9B234"/>
<path d="M165.979 220.708C165.979 220.708 166.505 235.352 167.557 235.611C168.609 235.87 170.677 235.968 171.007 235.807C172.003 235.324 172.326 220.974 172.326 220.974" fill="#FECE00"/>
<path opacity="0.4" d="M165.979 220.708C165.979 220.708 166.505 235.352 167.557 235.611C168.609 235.87 170.677 235.968 171.007 235.807C172.003 235.324 172.326 220.974 172.326 220.974" fill="#F9B234"/>
<path d="M223.13 220.708C223.13 220.708 222.604 235.352 221.552 235.611C220.5 235.87 218.431 235.968 218.102 235.807C217.106 235.324 216.783 220.974 216.783 220.974" fill="#FECE00"/>
<path opacity="0.4" d="M223.13 220.708C223.13 220.708 222.604 235.352 221.552 235.611C220.5 235.87 218.431 235.968 218.102 235.807C217.106 235.324 216.783 220.974 216.783 220.974" fill="#F9B234"/>
</svg>
