<svg xmlns="http://www.w3.org/2000/svg" width="110" height="158" viewBox="0 0 110 158" fill="#003566">
  <path d="M104.309 149.518C104.309 154.199 82.2954 158 55.1498 158C27.9942 158 5.99023 154.199 5.99023 149.518C5.99023 144.837 28.0042 141.036 55.1498 141.036C82.2954 141.036 104.309 144.837 104.309 149.518Z" fill="url(#paint0_radial_401_4075)"/>
  <path d="M110 55.104C110 94.3039 68.9272 136.755 57.7655 147.557C56.218 149.058 53.772 149.058 52.2345 147.557C41.0828 136.745 0 94.2939 0 55.104C0 24.6762 24.6197 0 55 0C85.3803 0 110 24.6762 110 55.104Z" fill="url(#paint1_linear_401_4075)"/>
  <path d="M98.8882 55.1039C98.8882 79.3901 79.2403 99.0751 55 99.0751C30.7597 99.0751 11.1118 79.3901 11.1118 55.1039C11.1118 30.8178 30.7597 11.1328 55 11.1328C79.2403 11.1428 98.8882 30.8278 98.8882 55.1039Z" fill="url(#paint2_linear_401_4075)"/>
  <path d="M94.7894 54.9701C94.7894 77.0457 76.9287 94.9402 54.8947 94.9402C32.8608 94.9402 15 77.0457 15 54.9701C15 32.8945 32.8608 15 54.8947 15C76.9287 15 94.7894 32.8945 94.7894 54.9701Z" fill="url(#paint3_radial_401_4075)"/>
  <defs>
    <radialGradient id="paint0_radial_401_4075" cx="0" cy="0" r="1" gradientUnits="userSpaceOnUse" gradientTransform="translate(55.1419 149.519) scale(49.1671 8.48266)">
      <stop stop-color="#999999"/>
      <stop offset="0.00430441" stop-color="#F3C73F"/>
      <stop offset="0.1104" stop-color="#F7D97E"/>
      <stop offset="0.2255" stop-color="#FAE7AE"/>
      <stop offset="0.3537" stop-color="#FCF1CF"/>
      <stop offset="0.5004" stop-color="#FEF9EC"/>
      <stop offset="0.6815" stop-color="#FFFEFA"/>
      <stop offset="1" stop-color="#FFFEFA"/>
    </radialGradient>
    <linearGradient id="paint1_linear_401_4075" x1="11.7844" y1="107.077" x2="98.3827" y2="20.642" gradientUnits="userSpaceOnUse">
      <stop stop-color="#E8C30A"/>
      <stop offset="1" stop-color="#FFDE3B"/>
    </linearGradient>
    <linearGradient id="paint2_linear_401_4075" x1="23.9715" y1="86.1947" x2="86.1496" y2="24.1339" gradientUnits="userSpaceOnUse">
      <stop stop-color="#FFDE3B"/>
      <stop offset="1" stop-color="#E8C30A"/>
    </linearGradient>
    <radialGradient id="paint3_radial_401_4075" cx="0" cy="0" r="1" gradientUnits="userSpaceOnUse" gradientTransform="translate(54.8967 54.9715) scale(39.8943 39.9697)">
      <stop offset="0.7092" stop-color="white"/>
      <stop offset="0.8395" stop-color="#FDFDFD"/>
      <stop offset="0.8864" stop-color="#F6F6F6"/>
      <stop offset="0.9198" stop-color="#EBEBEB"/>
      <stop offset="0.9469" stop-color="#DADADA"/>
      <stop offset="0.97" stop-color="#C4C4C4"/>
      <stop offset="0.9902" stop-color="#A9A9A9"/>
      <stop offset="1" stop-color="#999999"/>
    </radialGradient>
  </defs>
</svg>