<svg width="25" height="25" viewBox="0 0 25 25" fill="none" xmlns="http://www.w3.org/2000/svg">
<g id="ic:baseline-apple">
<path id="Vector" d="M17.5502 20.78C16.5702 21.73 15.5002 21.58 14.4702 21.13C13.3802 20.67 12.3802 20.65 11.2302 21.13C9.79016 21.75 9.03016 21.57 8.17016 20.78C3.29016 15.75 4.01016 8.09 9.55016 7.81C10.9002 7.88 11.8402 8.55 12.6302 8.61C13.8102 8.37 14.9402 7.68 16.2002 7.77C17.7102 7.89 18.8502 8.49 19.6002 9.57C16.4802 11.44 17.2202 15.55 20.0802 16.7C19.5102 18.2 18.7702 19.69 17.5402 20.79L17.5502 20.78ZM12.5302 7.75C12.3802 5.52 14.1902 3.68 16.2702 3.5C16.5602 6.08 13.9302 8 12.5302 7.75Z" fill="#000610"/>
</g>
</svg>
