<svg xmlns="http://www.w3.org/2000/svg" width="24" height="25" viewBox="0 0 24 25" fill="none">
  <path d="M2 8.5C2 6.29086 3.79086 4.5 6 4.5H18C20.2091 4.5 22 6.29086 22 8.5V16.5C22 18.7091 20.2091 20.5 18 20.5H6C3.79086 20.5 2 18.7091 2 16.5V8.5Z" stroke="#333943" stroke-width="1.5" stroke-linejoin="round"/>
  <path d="M14 12.5C14 13.6046 13.1046 14.5 12 14.5C10.8954 14.5 10 13.6046 10 12.5C10 11.3954 10.8954 10.5 12 10.5C13.1046 10.5 14 11.3954 14 12.5Z" stroke="#333943" stroke-width="1.5"/>
  <path d="M6.5 8C6.5 8.55228 6.05228 9 5.5 9C4.94772 9 4.5 8.55228 4.5 8C4.5 7.44772 4.94772 7 5.5 7C6.05228 7 6.5 7.44772 6.5 8Z" fill="#333943"/>
  <path d="M19.5 8C19.5 8.55228 19.0523 9 18.5 9C17.9477 9 17.5 8.55228 17.5 8C17.5 7.44772 17.9477 7 18.5 7C19.0523 7 19.5 7.44772 19.5 8Z" fill="#333943"/>
  <path d="M6.5 17C6.5 17.5523 6.05228 18 5.5 18C4.94772 18 4.5 17.5523 4.5 17C4.5 16.4477 4.94772 16 5.5 16C6.05228 16 6.5 16.4477 6.5 17Z" fill="#333943"/>
  <path d="M19.5 17C19.5 17.5523 19.0523 18 18.5 18C17.9477 18 17.5 17.5523 17.5 17C17.5 16.4477 17.9477 16 18.5 16C19.0523 16 19.5 16.4477 19.5 17Z" fill="#333943"/>
</svg>