<svg xmlns="http://www.w3.org/2000/svg" width="24" height="25" viewBox="0 0 24 25" fill="none">
  <path d="M19.2585 2.3682C18.1512 1.10605 16.1495 0.564941 13.5887 0.564941H6.15668C5.90332 0.564951 5.65827 0.655342 5.46559 0.819864C5.27291 0.984385 5.14524 1.21225 5.10553 1.46248L2.01096 21.089C1.94945 21.476 2.24913 21.8265 2.6414 21.8265H7.22969L8.38201 14.5175L8.34625 14.7464C8.42834 14.2298 8.87019 13.8487 9.39342 13.8487H11.5738C15.8571 13.8487 19.2109 12.1089 20.1906 7.07617C20.2197 6.92733 20.2449 6.78245 20.2667 6.64092C20.143 6.57543 20.143 6.57543 20.2667 6.64092C20.5584 4.78076 20.2647 3.51456 19.2585 2.3682Z" fill="#27346A"/>
  <path d="M10.1377 5.97082C10.2631 5.91109 10.4003 5.88014 10.5392 5.88023H16.3658C17.0558 5.88023 17.6993 5.92513 18.2874 6.01978C18.452 6.04601 18.6157 6.07734 18.7783 6.11371C19.0088 6.16457 19.2366 6.22682 19.4609 6.30023C19.7501 6.39678 20.0193 6.50923 20.2668 6.64092C20.5584 4.78004 20.2647 3.51456 19.2585 2.3682C18.1506 1.10605 16.1495 0.564941 13.5887 0.564941H6.15605C5.63274 0.564941 5.18754 0.945922 5.10553 1.46248L2.01096 21.0883C1.94945 21.4759 2.24913 21.8259 2.64076 21.8259H7.22969L9.62039 6.66539C9.6439 6.51638 9.70326 6.3753 9.79337 6.25431C9.88347 6.13332 10.0016 6.03603 10.1377 5.97082Z" fill="#27346A"/>
  <path d="M20.1906 7.07588C19.2109 12.1079 15.8571 13.8484 11.5737 13.8484H9.39276C8.86953 13.8484 8.42759 14.2295 8.3463 14.7461L6.91273 23.8339C6.85917 24.1726 7.1211 24.4795 7.46378 24.4795H11.3316C11.5532 24.4795 11.7674 24.4004 11.9359 24.2564C12.1043 24.1125 12.2159 23.9132 12.2505 23.6944L12.2882 23.4973L13.0172 18.8772L13.0641 18.6219C13.0987 18.403 13.2103 18.2037 13.3787 18.0598C13.5472 17.9159 13.7614 17.8368 13.983 17.8367H14.5618C18.3086 17.8367 21.2424 16.3145 22.0997 11.9122C22.4576 10.0725 22.2724 8.53647 21.3258 7.45758C21.0386 7.1308 20.6821 6.86092 20.2667 6.64062C20.2442 6.78288 20.2198 6.92704 20.1906 7.07588Z" fill="#2790C3"/>
  <path d="M19.2412 6.23186C19.0884 6.18725 18.9342 6.14776 18.7788 6.11345C18.6161 6.07767 18.4524 6.04656 18.2879 6.02015C17.6992 5.92487 17.0561 5.87989 16.3655 5.87989H10.5397C10.4006 5.87957 10.2633 5.91079 10.1381 5.9712C10.0019 6.03621 9.88362 6.13344 9.79347 6.25446C9.70333 6.37549 9.64404 6.51666 9.62075 6.66577L8.38244 14.5173L8.34668 14.7461C8.42814 14.2295 8.86999 13.8484 9.3933 13.8484H11.5743C15.8576 13.8484 19.2114 12.1087 20.1911 7.07591C20.2202 6.92706 20.2447 6.78283 20.2672 6.64065C20.0191 6.50969 19.7506 6.39652 19.4614 6.3006C19.3884 6.27641 19.315 6.25349 19.2412 6.23186" fill="#1F264F"/>
</svg>